RisingSun-Light.ufo
<glyph name="exclam" format="2">
  <advance width="228"/>
  <unicode hex="0021"/>
  <outline>
    <contour>
      <point x="121" y="200" type="line"/>
      <point x="124" y="717" type="line"/>
      <point x="104" y="717" type="line"/>
      <point x="107" y="200" type="line"/>
    </contour>
    <contour>
      <point x="80" y="29" type="curve" smooth="yes"/>
      <point x="80" y="10"/>
      <point x="95" y="-5"/>
      <point x="114" y="-5" type="curve" smooth="yes"/>
      <point x="133" y="-5"/>
      <point x="148" y="10"/>
      <point x="148" y="29" type="curve" smooth="yes"/>
      <point x="148" y="47"/>
      <point x="133" y="62"/>
      <point x="114" y="62" type="curve" smooth="yes"/>
      <point x="95" y="62"/>
      <point x="80" y="47"/>
    </contour>
  </outline>
</glyph>
<glyph name="comma" format="2">
  <advance width="260"/>
  <unicode hex="002C"/>
  <outline>
    <contour>
      <point x="106" y="-160" type="line"/>
      <point x="152" y="100" type="line"/>
      <point x="116" y="100" type="line"/>
      <point x="82" y="-160" type="line"/>
    </contour>
  </outline>
</glyph>
<glyph name="period" format="2">
  <advance width="158"/>
  <unicode hex="002E"/>
  <outline>
    <contour>
      <point x="45" y="29" type="curve" smooth="yes"/>
      <point x="45" y="10"/>
      <point x="60" y="-5"/>
      <point x="79" y="-5" type="curve" smooth="yes"/>
      <point x="98" y="-5"/>
      <point x="113" y="10"/>
      <point x="113" y="29" type="curve" smooth="yes"/>
      <point x="113" y="47"/>
      <point x="98" y="62"/>
      <point x="79" y="62" type="curve" smooth="yes"/>
      <point x="60" y="62"/>
      <point x="45" y="47"/>
    </contour>
  </outline>
</glyph>
<glyph name="slash" format="2">
  <advance width="536"/>
  <unicode hex="002F"/>
  <outline>
    <contour>
      <point x="482" y="710" type="line"/>
      <point x="27" y="0" type="line"/>
      <point x="52" y="0" type="line"/>
      <point x="508" y="710" type="line"/>
    </contour>
  </outline>
</glyph>
<glyph name="one" format="2">
  <advance width="334"/>
  <unicode hex="0031"/>
  <outline>
    <contour>
      <point x="214" y="720" type="line"/>
      <point x="194" y="720" type="line"/>
      <point x="192" y="716"/>
      <point x="108" y="621"/>
      <point x="39" y="621" type="curve"/>
      <point x="39" y="601" type="line"/>
      <point x="93" y="601"/>
      <point x="172" y="656"/>
      <point x="194" y="687" type="curve"/>
      <point x="194" y="0" type="line"/>
      <point x="214" y="0" type="line"/>
    </contour>
  </outline>
</glyph>
<glyph name="three" format="2">
  <advance width="583"/>
  <unicode hex="0033"/>
  <outline>
    <contour>
      <point x="283" y="-9" type="curve" smooth="yes"/>
      <point x="416" y="-9"/>
      <point x="529" y="72"/>
      <point x="529" y="178" type="curve" smooth="yes"/>
      <point x="529" y="268"/>
      <point x="464" y="340"/>
      <point x="365" y="359" type="curve"/>
      <point x="461" y="384"/>
      <point x="509" y="438"/>
      <point x="509" y="521" type="curve" smooth="yes"/>
      <point x="509" y="634"/>
      <point x="412" y="719"/>
      <point x="281" y="719" type="curve" smooth="yes"/>
      <point x="182" y="719"/>
      <point x="97" y="669"/>
      <point x="66" y="592" type="curve"/>
      <point x="84" y="584" type="line"/>
      <point x="112" y="654"/>
      <point x="189" y="699"/>
      <point x="281" y="699" type="curve" smooth="yes"/>
      <point x="401" y="699"/>
      <point x="489" y="624"/>
      <point x="489" y="521" type="curve" smooth="yes"/>
      <point x="489" y="423"/>
      <point x="410" y="370"/>
      <point x="264" y="370" type="curve" smooth="yes"/>
      <point x="229" y="370" type="line"/>
      <point x="229" y="350" type="line"/>
      <point x="264" y="350" type="line" smooth="yes"/>
      <point x="411" y="350"/>
      <point x="509" y="282"/>
      <point x="509" y="179" type="curve" smooth="yes"/>
      <point x="509" y="83"/>
      <point x="405" y="11"/>
      <point x="283" y="11" type="curve" smooth="yes"/>
      <point x="190" y="11"/>
      <point x="98" y="57"/>
      <point x="75" y="126" type="curve"/>
      <point x="56" y="119" type="line"/>
      <point x="84" y="41"/>
      <point x="184" y="-9"/>
    </contour>
  </outline>
</glyph>
<glyph name="seven" format="2">
  <advance width="491"/>
  <unicode hex="0037"/>
  <outline>
    <contour>
      <point x="102" y="0" type="line"/>
      <point x="125" y="0" type="line"/>
      <point x="489" y="710" type="line"/>
      <point x="29" y="710" type="line"/>
      <point x="29" y="690" type="line"/>
      <point x="456" y="690" type="line"/>
    </contour>
  </outline>
</glyph>
<glyph name="G" format="2">
  <advance width="736"/>
  <unicode hex="0047"/>
  <outline>
    <contour>
      <point x="377" y="-5" type="curve" smooth="yes"/>
      <point x="485" y="-5"/>
      <point x="599" y="47"/>
      <point x="669" y="115" type="curve"/>
      <point x="669" y="329" type="line"/>
      <point x="401" y="329" type="line"/>
      <point x="401" y="309" type="line"/>
      <point x="647" y="309" type="line"/>
      <point x="647" y="124" type="line"/>
      <point x="579" y="64"/>
      <point x="486" y="15"/>
      <point x="379" y="15" type="curve" smooth="yes"/>
      <point x="199" y="15"/>
      <point x="68" y="179"/>
      <point x="68" y="353" type="curve" smooth="yes"/>
      <point x="68" y="523"/>
      <point x="194" y="695"/>
      <point x="378" y="695" type="curve" smooth="yes"/>
      <point x="488" y="695"/>
      <point x="580" y="633"/>
      <point x="635" y="544" type="curve"/>
      <point x="649" y="558" type="line"/>
      <point x="592" y="649"/>
      <point x="496" y="715"/>
      <point x="379" y="715" type="curve" smooth="yes"/>
      <point x="192" y="715"/>
      <point x="48" y="544"/>
      <point x="48" y="356" type="curve" smooth="yes"/>
      <point x="48" y="172"/>
      <point x="186" y="-5"/>
    </contour>
  </outline>
</glyph>
<glyph name="J" format="2">
  <advance width="518"/>
  <unicode hex="004A"/>
  <anchor x="354" y="709" name="m.uni0302"/>
  <anchor x="0" y="0" name="m.uni031B_1"/>
  <anchor x="0" y="0" name="b.uni0324_2"/>
  <anchor x="0" y="0" name="b.uni0328_3"/>
  <anchor x="0" y="0" name="b.uni0335_4"/>
  <outline>
    <contour>
      <point x="202" y="-5" type="curve" smooth="yes"/>
      <point x="139" y="-5"/>
      <point x="51" y="35"/>
      <point x="26" y="96" type="curve"/>
      <point x="43" y="105" type="line"/>
      <point x="65" y="51"/>
      <point x="147" y="14"/>
      <point x="202" y="14" type="curve" smooth="yes"/>
      <point x="327" y="14"/>
      <point x="396" y="97"/>
      <point x="396" y="217" type="curve" smooth="yes"/>
      <point x="396" y="710" type="line"/>
      <point x="418" y="710" type="line"/>
      <point x="418" y="207" type="line" smooth="yes"/>
      <point x="418" y="75"/>
      <point x="333" y="-5"/>
    </contour>
  </outline>
</glyph>
<glyph name="y" format="2">
  <advance width="535"/>
  <unicode hex="0079"/>
  <outline>
    <contour>
      <point x="488" y="519" type="line"/>
      <point x="271" y="25" type="line"/>
      <point x="42" y="519" type="line"/>
      <point x="20" y="519" type="line"/>
      <point x="261" y="0" type="line"/>
      <point x="173" y="-213" type="line"/>
      <point x="191" y="-213" type="line"/>
      <point x="510" y="519" type="line"/>
    </contour>
  </outline>
</glyph>
<glyph name="exclamdown" format="2">
  <advance width="228"/>
  <unicode hex="00A1"/>
  <outline>
    <contour>
      <point x="107" y="319" type="line"/>
      <point x="104" y="-198" type="line"/>
      <point x="124" y="-198" type="line"/>
      <point x="121" y="319" type="line"/>
    </contour>
    <contour>
      <point x="148" y="490" type="curve" smooth="yes"/>
      <point x="148" y="509"/>
      <point x="133" y="524"/>
      <point x="114" y="524" type="curve" smooth="yes"/>
      <point x="95" y="524"/>
      <point x="80" y="509"/>
      <point x="80" y="490" type="curve" smooth="yes"/>
      <point x="80" y="472"/>
      <point x="95" y="457"/>
      <point x="114" y="457" type="curve" smooth="yes"/>
      <point x="133" y="457"/>
      <point x="148" y="472"/>
    </contour>
  </outline>
</glyph>
<glyph name="Idieresis" format="2">
  <advance width="218"/>
  <unicode hex="00CF"/>
  <anchor x="110" y="0" name="bottom"/>
  <anchor x="119" y="0" name="ogonek"/>
  <anchor x="109" y="707" name="top"/>
  <anchor x="20" y="710" name="topleft"/>
  <outline>
    <component base="I"/>
    <contour>
      <point x="18" y="880" type="curve" smooth="yes"/>
      <point x="18" y="861"/>
      <point x="33" y="846"/>
      <point x="52" y="846" type="curve" smooth="yes"/>
      <point x="71" y="846"/>
      <point x="86" y="861"/>
      <point x="86" y="880" type="curve" smooth="yes"/>
      <point x="86" y="898"/>
      <point x="71" y="913"/>
      <point x="52" y="913" type="curve" smooth="yes"/>
      <point x="33" y="913"/>
      <point x="18" y="898"/>
    </contour>
    <contour>
      <point x="132" y="880" type="curve" smooth="yes"/>
      <point x="132" y="861"/>
      <point x="147" y="846"/>
      <point x="166" y="846" type="curve" smooth="yes"/>
      <point x="185" y="846"/>
      <point x="200" y="861"/>
      <point x="200" y="880" type="curve" smooth="yes"/>
      <point x="200" y="898"/>
      <point x="185" y="913"/>
      <point x="166" y="913" type="curve" smooth="yes"/>
      <point x="147" y="913"/>
      <point x="132" y="898"/>
    </contour>
  </outline>
</glyph>
<glyph name="idieresis" format="2">
  <advance width="188"/>
  <unicode hex="00EF"/>
  <anchor x="94" y="519" name="_top"/>
  <anchor x="94" y="720" name="top"/>
  <outline>
    <component base="idotless"/>
    <contour>
      <point x="46" y="653" type="line"/>
      <point x="46" y="730" type="line"/>
      <point x="26" y="730" type="line"/>
      <point x="26" y="653" type="line"/>
    </contour>
    <contour>
      <point x="162" y="653" type="line"/>
      <point x="162" y="730" type="line"/>
      <point x="142" y="730" type="line"/>
      <point x="142" y="653" type="line"/>
    </contour>
  </outline>
</glyph>
<glyph name="Dcroat" format="2">
  <advance width="718"/>
  <unicode hex="0110"/>
  <outline>
    <component base="D" xOffset="7"/>
    <contour>
      <point x="318" y="347" type="line"/>
      <point x="318" y="367" type="line"/>
      <point x="35" y="367" type="line"/>
      <point x="35" y="347" type="line"/>
    </contour>
  </outline>
</glyph>
<glyph name="dcroat" format="2">
  <advance width="604"/>
  <unicode hex="0111"/>
  <outline>
    <component base="d"/>
    <contour>
      <point x="595" y="633" type="line"/>
      <point x="595" y="653" type="line"/>
      <point x="375" y="653" type="line"/>
      <point x="375" y="633" type="line"/>
    </contour>
  </outline>
</glyph>
<glyph name="Hbar" format="2">
  <advance width="741"/>
  <unicode hex="0126"/>
  <outline>
    <component base="H" xOffset="5"/>
    <contour>
      <point x="687" y="554" type="line"/>
      <point x="687" y="574" type="line"/>
      <point x="54" y="574" type="line"/>
      <point x="54" y="554" type="line"/>
    </contour>
  </outline>
</glyph>
<glyph name="hbar" format="2">
  <advance width="565"/>
  <unicode hex="0127"/>
  <outline>
    <component base="h"/>
    <contour>
      <point x="230" y="633" type="line"/>
      <point x="230" y="653" type="line"/>
      <point x="10" y="653" type="line"/>
      <point x="10" y="633" type="line"/>
    </contour>
  </outline>
</glyph>
<glyph name="Lslash" format="2">
  <advance width="586"/>
  <unicode hex="0141"/>
  <outline>
    <component base="L" xOffset="7"/>
    <contour>
      <point x="328" y="506" type="line"/>
      <point x="314" y="521" type="line"/>
      <point x="29" y="236" type="line"/>
      <point x="43" y="221" type="line"/>
    </contour>
  </outline>
</glyph>
<glyph name="lslash" format="2">
  <advance width="253"/>
  <unicode hex="0142"/>
  <outline>
    <component base="l" xOffset="14"/>
    <contour>
      <point x="231" y="504" type="line"/>
      <point x="216" y="518" type="line"/>
      <point x="16" y="318" type="line"/>
      <point x="31" y="304" type="line"/>
    </contour>
  </outline>
</glyph>
<glyph name="Tbar" format="2">
  <advance width="640"/>
  <unicode hex="0166"/>
  <outline>
    <component base="T" xOffset="20"/>
    <contour>
      <point x="562" y="307" type="line"/>
      <point x="562" y="327" type="line"/>
      <point x="78" y="327" type="line"/>
      <point x="78" y="307" type="line"/>
    </contour>
  </outline>
</glyph>
<glyph name="tbar" format="2">
  <advance width="297"/>
  <unicode hex="0167"/>
  <outline>
    <component base="t" xOffset="1"/>
    <contour>
      <point x="237" y="299" type="line"/>
      <point x="237" y="319" type="line"/>
      <point x="27" y="319" type="line"/>
      <point x="27" y="299" type="line"/>
    </contour>
  </outline>
</glyph>
<glyph name="gravecomb" format="2">
  <advance width="198"/>
  <unicode hex="0300"/>
  <anchor x="118" y="519" name="_top"/>
  <anchor x="99" y="730" name="top"/>
  <outline>
    <contour>
      <point x="35" y="730" type="line"/>
      <point x="129" y="615" type="line"/>
      <point x="148" y="615" type="line"/>
      <point x="69" y="730" type="line"/>
    </contour>
  </outline>
</glyph>
<glyph name="acutecomb" format="2">
  <advance width="198"/>
  <unicode hex="0301"/>
  <anchor x="60" y="519" name="_top"/>
  <anchor x="99" y="730" name="top"/>
  <outline>
    <contour>
      <point x="148" y="730" type="line"/>
      <point x="114" y="730" type="line"/>
      <point x="50" y="657" type="line"/>
      <point x="66" y="645" type="line"/>
    </contour>
  </outline>
</glyph>
<glyph name="circumflexcomb" format="2">
  <advance width="302"/>
  <unicode hex="0302"/>
  <anchor x="151" y="519" name="_top"/>
  <anchor x="151" y="730" name="top"/>
  <outline>
    <contour>
      <point x="166" y="730" type="line"/>
      <point x="132" y="730" type="line"/>
      <point x="43" y="615" type="line"/>
      <point x="62" y="615" type="line"/>
    </contour>
    <contour>
      <point x="133" y="730" type="line"/>
      <point x="237" y="615" type="line"/>
      <point x="256" y="615" type="line"/>
      <point x="167" y="730" type="line"/>
    </contour>
  </outline>
</glyph>
<glyph name="macroncomb" format="2">
  <advance width="380"/>
  <unicode hex="0304"/>
  <anchor x="190" y="519" name="_top"/>
  <anchor x="190" y="706" name="top"/>
  <outline>
    <contour>
      <point x="330" y="686" type="line"/>
      <point x="330" y="706" type="line"/>
      <point x="50" y="706" type="line"/>
      <point x="50" y="686" type="line"/>
    </contour>
  </outline>
</glyph>
<glyph name="dotaccentcomb" format="2">
  <advance width="120"/>
  <unicode hex="0307"/>
  <anchor x="60" y="519" name="_top"/>
  <anchor x="60" y="730" name="top"/>
  <outline>
    <contour>
      <point x="26" y="689" type="curve" smooth="yes"/>
      <point x="26" y="670"/>
      <point x="41" y="655"/>
      <point x="60" y="655" type="curve" smooth="yes"/>
      <point x="79" y="655"/>
      <point x="94" y="670"/>
      <point x="94" y="689" type="curve" smooth="yes"/>
      <point x="94" y="707"/>
      <point x="79" y="722"/>
      <point x="60" y="722" type="curve" smooth="yes"/>
      <point x="41" y="722"/>
      <point x="26" y="707"/>
    </contour>
  </outline>
</glyph>
<glyph name="dieresiscomb" format="2">
  <advance width="236"/>
  <unicode hex="0308"/>
  <anchor x="118" y="519" name="_top"/>
  <anchor x="118" y="720" name="top"/>
  <outline>
    <contour>
      <point x="6" y="689" type="curve" smooth="yes"/>
      <point x="6" y="670"/>
      <point x="21" y="655"/>
      <point x="40" y="655" type="curve" smooth="yes"/>
      <point x="59" y="655"/>
      <point x="74" y="670"/>
      <point x="74" y="689" type="curve" smooth="yes"/>
      <point x="74" y="707"/>
      <point x="59" y="722"/>
      <point x="40" y="722" type="curve" smooth="yes"/>
      <point x="21" y="722"/>
      <point x="6" y="707"/>
    </contour>
    <contour>
      <point x="160" y="689" type="curve" smooth="yes"/>
      <point x="160" y="670"/>
      <point x="175" y="655"/>
      <point x="194" y="655" type="curve" smooth="yes"/>
      <point x="213" y="655"/>
      <point x="228" y="670"/>
      <point x="228" y="689" type="curve" smooth="yes"/>
      <point x="228" y="707"/>
      <point x="213" y="722"/>
      <point x="194" y="722" type="curve" smooth="yes"/>
      <point x="175" y="722"/>
      <point x="160" y="707"/>
    </contour>
  </outline>
</glyph>
<glyph name="ringcomb" format="2">
  <advance width="238"/>
  <unicode hex="030A"/>
  <anchor x="119" y="519" name="_top"/>
  <anchor x="117" y="730" name="top"/>
  <outline>
    <contour>
      <point x="44" y="681" type="curve" smooth="yes"/>
      <point x="44" y="639"/>
      <point x="77" y="606"/>
      <point x="119" y="606" type="curve" smooth="yes"/>
      <point x="161" y="606"/>
      <point x="194" y="639"/>
      <point x="194" y="681" type="curve" smooth="yes"/>
      <point x="194" y="723"/>
      <point x="161" y="756"/>
      <point x="119" y="756" type="curve" smooth="yes"/>
      <point x="77" y="756"/>
      <point x="44" y="723"/>
    </contour>
    <contour>
      <point x="119" y="735" type="curve" smooth="yes"/>
      <point x="148" y="735"/>
      <point x="173" y="714"/>
      <point x="173" y="681" type="curve" smooth="yes"/>
      <point x="173" y="649"/>
      <point x="145" y="627"/>
      <point x="119" y="627" type="curve" smooth="yes"/>
      <point x="89" y="627"/>
      <point x="65" y="651"/>
      <point x="65" y="681" type="curve" smooth="yes"/>
      <point x="65" y="714"/>
      <point x="90" y="735"/>
    </contour>
  </outline>
</glyph>
<glyph name="caroncomb" format="2">
  <advance width="302"/>
  <unicode hex="030C"/>
  <anchor x="151" y="519" name="_top"/>
  <anchor x="151" y="730" name="top"/>
  <outline>
    <contour>
      <point x="166" y="615" type="line"/>
      <point x="62" y="730" type="line"/>
      <point x="43" y="730" type="line"/>
      <point x="132" y="615" type="line"/>
    </contour>
    <contour>
      <point x="133" y="615" type="line"/>
      <point x="167" y="615" type="line"/>
      <point x="256" y="730" type="line"/>
      <point x="237" y="730" type="line"/>
    </contour>
  </outline>
</glyph>
<glyph name="dblgravecomb" format="2">
  <advance width="298"/>
  <unicode hex="030F"/>
  <anchor x="180" y="519" name="_top"/>
  <outline>
    <contour>
      <point x="115" y="615" type="line"/>
      <point x="134" y="615" type="line"/>
      <point x="55" y="730" type="line"/>
      <point x="21" y="730" type="line"/>
    </contour>
    <contour>
      <point x="275" y="615" type="line"/>
      <point x="294" y="615" type="line"/>
      <point x="215" y="730" type="line"/>
      <point x="181" y="730" type="line"/>
    </contour>
  </outline>
</glyph>
<glyph name="commaturnedabovecomb" format="2">
  <advance width="120"/>
  <unicode hex="0312"/>
  <anchor x="54" y="519" name="_top"/>
  <anchor x="54" y="730" name="top"/>
  <outline>
    <contour>
      <point x="33" y="613" type="line"/>
      <point x="67" y="613" type="line"/>
      <point x="146" y="728" type="line"/>
      <point x="127" y="728" type="line"/>
    </contour>
  </outline>
</glyph>
<glyph name="dotbelowcomb" format="2">
  <advance width="120"/>
  <unicode hex="0323"/>
  <anchor x="60" y="0" name="_bottom"/>
  <anchor x="60" y="-127" name="bottom"/>
  <outline>
    <contour>
      <point x="26" y="-91" type="curve" smooth="yes"/>
      <point x="26" y="-110"/>
      <point x="41" y="-125"/>
      <point x="60" y="-125" type="curve" smooth="yes"/>
      <point x="79" y="-125"/>
      <point x="94" y="-110"/>
      <point x="94" y="-91" type="curve" smooth="yes"/>
      <point x="94" y="-73"/>
      <point x="79" y="-58"/>
      <point x="60" y="-58" type="curve" smooth="yes"/>
      <point x="41" y="-58"/>
      <point x="26" y="-73"/>
    </contour>
  </outline>
</glyph>
<glyph name="dieresisbelowcomb" format="2">
  <advance width="236"/>
  <unicode hex="0324"/>
  <anchor x="118" y="0" name="_bottom"/>
  <anchor x="118" y="-127" name="bottom"/>
  <outline>
    <contour>
      <point x="70" y="-127" type="line"/>
      <point x="70" y="-50" type="line"/>
      <point x="50" y="-50" type="line"/>
      <point x="50" y="-127" type="line"/>
    </contour>
    <contour>
      <point x="186" y="-127" type="line"/>
      <point x="186" y="-50" type="line"/>
      <point x="166" y="-50" type="line"/>
      <point x="166" y="-127" type="line"/>
    </contour>
  </outline>
</glyph>
<glyph name="commaaccentcomb" format="2">
  <advance width="120"/>
  <unicode hex="0326"/>
  <anchor x="70" y="0" name="_bottom"/>
  <outline>
    <contour>
      <point x="55" y="-196" type="line"/>
      <point x="88" y="-51" type="line"/>
      <point x="52" y="-51" type="line"/>
      <point x="31" y="-196" type="line"/>
    </contour>
  </outline>
</glyph>
<glyph name="cedillacomb" format="2">
  <advance width="252"/>
  <unicode hex="0327"/>
  <outline>
    <contour>
      <point x="53" y="-146" type="curve"/>
      <point x="81" y="-158"/>
      <point x="116" y="-165"/>
      <point x="147" y="-165" type="curve" smooth="yes"/>
      <point x="186" y="-165"/>
      <point x="228" y="-155"/>
      <point x="228" y="-108" type="curve" smooth="yes"/>
      <point x="228" y="-66"/>
      <point x="197" y="-54"/>
      <point x="160" y="-54" type="curve" smooth="yes"/>
      <point x="146" y="-54"/>
      <point x="131" y="-55"/>
      <point x="118" y="-60" type="curve"/>
      <point x="151" y="-3" type="line"/>
      <point x="145" y="0"/>
      <point x="139" y="4"/>
      <point x="133" y="8" type="curve"/>
      <point x="79" y="-86" type="line"/>
      <point x="105" y="-77"/>
      <point x="132" y="-70"/>
      <point x="160" y="-70" type="curve" smooth="yes"/>
      <point x="186" y="-70"/>
      <point x="208" y="-78"/>
      <point x="208" y="-108" type="curve" smooth="yes"/>
      <point x="208" y="-140"/>
      <point x="176" y="-146"/>
      <point x="150" y="-146" type="curve" smooth="yes"/>
      <point x="120" y="-146"/>
      <point x="90" y="-141"/>
      <point x="63" y="-128" type="curve"/>
      <point x="60" y="-134"/>
      <point x="56" y="-140"/>
    </contour>
  </outline>
</glyph>
<glyph name="macronbelowcomb" format="2">
  <advance width="380"/>
  <unicode hex="0331"/>
  <anchor x="190" y="0" name="_bottom"/>
  <anchor x="190" y="-95" name="bottom"/>
  <outline>
    <contour>
      <point x="330" y="-95" type="line"/>
      <point x="330" y="-75" type="line"/>
      <point x="50" y="-75" type="line"/>
      <point x="50" y="-95" type="line"/>
    </contour>
  </outline>
</glyph>
<glyph name="dieresistonos" format="2">
  <advance width="288"/>
  <unicode hex="0385"/>
  <anchor x="140" y="532" name="_top"/>
  <outline>
    <component base="tonos" xOffset="84" yOffset="21"/>
    <contour>
      <point x="-3" y="637" type="curve" smooth="yes"/>
      <point x="-3" y="617"/>
      <point x="14" y="598"/>
      <point x="36" y="598" type="curve" smooth="yes"/>
      <point x="58" y="598"/>
      <point x="72" y="617"/>
      <point x="72" y="637" type="curve" smooth="yes"/>
      <point x="72" y="659"/>
      <point x="58" y="673"/>
      <point x="36" y="673" type="curve" smooth="yes"/>
      <point x="14" y="673"/>
      <point x="-3" y="659"/>
    </contour>
    <contour>
      <point x="215" y="637" type="curve" smooth="yes"/>
      <point x="215" y="617"/>
      <point x="234" y="598"/>
      <point x="254" y="598" type="curve" smooth="yes"/>
      <point x="276" y="598"/>
      <point x="290" y="617"/>
      <point x="290" y="637" type="curve" smooth="yes"/>
      <point x="290" y="659"/>
      <point x="276" y="673"/>
      <point x="254" y="673" type="curve" smooth="yes"/>
      <point x="234" y="673"/>
      <point x="215" y="659"/>
    </contour>
  </outline>
</glyph>
<glyph name="Delta" format="2">
  <advance width="602"/>
  <unicode hex="0394"/>
  <outline>
    <contour>
      <point x="25" y="0" type="line"/>
      <point x="576" y="0" type="line"/>
      <point x="576" y="18" type="line"/>
      <point x="307" y="708" type="line"/>
      <point x="295" y="708" type="line"/>
      <point x="25" y="18" type="line"/>
    </contour>
    <contour>
      <point x="50" y="20" type="line"/>
      <point x="214" y="442" type="line"/>
      <point x="298" y="668" type="line"/>
      <point x="302" y="668" type="line"/>
      <point x="389" y="442" type="line"/>
      <point x="550" y="20" type="line"/>
    </contour>
  </outline>
</glyph>
<glyph name="Theta" format="2">
  <advance width="757"/>
  <unicode hex="0398"/>
  <anchor x="394" y="0" name="bottom"/>
  <anchor x="394" y="352" name="center"/>
  <anchor x="550" y="675" name="horn"/>
  <anchor x="394" y="0" name="ogonek"/>
  <anchor x="394" y="708" name="top"/>
  <anchor x="40" y="708" name="topleft"/>
  <anchor x="750" y="708" name="topright"/>
  <outline>
    <component base="O" xScale="0.983271" yScale="0.983271"/>
    <contour>
      <point x="129" y="344" type="line"/>
      <point x="606" y="344" type="line"/>
      <point x="606" y="364" type="line"/>
      <point x="129" y="364" type="line"/>
    </contour>
  </outline>
</glyph>
<glyph name="Upsilon" format="2">
  <advance width="599"/>
  <unicode hex="03A5"/>
  <anchor x="300" y="-24" name="bottom"/>
  <anchor x="298" y="739" name="top"/>
  <anchor x="-25" y="615" name="topleft"/>
  <outline>
    <contour>
      <point x="289" y="0" type="line"/>
      <point x="307" y="0" type="line"/>
      <point x="307" y="252" type="line"/>
      <point x="309" y="429"/>
      <point x="396" y="552"/>
      <point x="536" y="686" type="curve"/>
      <point x="524" y="703" type="line"/>
      <point x="395" y="572"/>
      <point x="344" y="519"/>
      <point x="300" y="368" type="curve"/>
      <point x="294" y="368" type="line"/>
      <point x="248" y="519"/>
      <point x="200" y="574"/>
      <point x="71" y="703" type="curve"/>
      <point x="61" y="686" type="line"/>
      <point x="183" y="569"/>
      <point x="289" y="446"/>
      <point x="289" y="252" type="curve"/>
    </contour>
  </outline>
</glyph>
<glyph name="Phi" format="2">
  <advance width="676"/>
  <unicode hex="03A6"/>
  <outline>
    <contour>
      <point x="330" y="108" type="line"/>
      <point x="182" y="108"/>
      <point x="72" y="214"/>
      <point x="72" y="356" type="curve" smooth="yes"/>
      <point x="72" y="500"/>
      <point x="182" y="607"/>
      <point x="330" y="607" type="curve"/>
      <point x="330" y="630" type="line"/>
      <point x="172" y="630"/>
      <point x="51" y="511"/>
      <point x="51" y="356" type="curve" smooth="yes"/>
      <point x="51" y="203"/>
      <point x="172" y="85"/>
      <point x="330" y="85" type="curve"/>
    </contour>
    <contour>
      <point x="350" y="-26" type="line"/>
      <point x="350" y="740" type="line"/>
      <point x="327" y="740" type="line"/>
      <point x="327" y="-26" type="line"/>
    </contour>
    <contour>
      <point x="349" y="85" type="line"/>
      <point x="510" y="85"/>
      <point x="629" y="203"/>
      <point x="629" y="356" type="curve" smooth="yes"/>
      <point x="629" y="511"/>
      <point x="510" y="630"/>
      <point x="349" y="630" type="curve"/>
      <point x="349" y="607" type="line"/>
      <point x="497" y="607"/>
      <point x="606" y="500"/>
      <point x="604" y="356" type="curve"/>
      <point x="606" y="214"/>
      <point x="497" y="108"/>
      <point x="349" y="108" type="curve"/>
    </contour>
  </outline>
</glyph>
<glyph name="Psi" format="2">
  <advance width="674"/>
  <unicode hex="03A8"/>
  <outline>
    <contour>
      <point x="326" y="0" type="line"/>
      <point x="351" y="0" type="line"/>
      <point x="351" y="708" type="line"/>
      <point x="326" y="708" type="line"/>
    </contour>
    <contour>
      <point x="83" y="423" type="line" smooth="yes"/>
      <point x="83" y="268"/>
      <point x="178" y="185"/>
      <point x="330" y="185" type="curve"/>
      <point x="332" y="206" type="line"/>
      <point x="186" y="206"/>
      <point x="102" y="285"/>
      <point x="100" y="426" type="curve"/>
      <point x="102" y="453"/>
      <point x="104" y="527"/>
      <point x="104" y="602" type="curve" smooth="yes"/>
      <point x="104" y="646"/>
      <point x="101" y="676"/>
      <point x="94" y="708" type="curve"/>
      <point x="73" y="708" type="line"/>
      <point x="82" y="657"/>
      <point x="83" y="634"/>
      <point x="83" y="590" type="curve" smooth="yes"/>
    </contour>
    <contour>
      <point x="590" y="590" type="line" smooth="yes"/>
      <point x="590" y="633"/>
      <point x="590" y="657"/>
      <point x="600" y="708" type="curve"/>
      <point x="579" y="708" type="line"/>
      <point x="571" y="676"/>
      <point x="571" y="646"/>
      <point x="571" y="602" type="curve" smooth="yes"/>
      <point x="571" y="527"/>
      <point x="573" y="453"/>
      <point x="573" y="426" type="curve" smooth="yes"/>
      <point x="573" y="285"/>
      <point x="486" y="206"/>
      <point x="344" y="206" type="curve"/>
      <point x="347" y="185" type="line"/>
      <point x="498" y="185"/>
      <point x="590" y="270"/>
      <point x="590" y="423" type="curve" smooth="yes"/>
    </contour>
  </outline>
</glyph>
<glyph name="Omega" format="2">
  <advance width="694"/>
  <unicode hex="03A9"/>
  <anchor x="354" y="0" name="bottom"/>
  <anchor x="37" y="614" name="topleft"/>
  <outline>
    <contour>
      <point x="73" y="0" type="line"/>
      <point x="301" y="0" type="line"/>
      <point x="301" y="101" type="line"/>
      <point x="176" y="135"/>
      <point x="73" y="242"/>
      <point x="73" y="406" type="curve" smooth="yes"/>
      <point x="73" y="572"/>
      <point x="193" y="698"/>
      <point x="347" y="696" type="curve"/>
      <point x="504" y="698"/>
      <point x="623" y="572"/>
      <point x="621" y="405" type="curve"/>
      <point x="623" y="242"/>
      <point x="523" y="136"/>
      <point x="392" y="101" type="curve"/>
      <point x="392" y="0" type="line"/>
      <point x="621" y="0" type="line"/>
      <point x="621" y="21" type="line"/>
      <point x="409" y="21" type="line"/>
      <point x="415" y="10" type="line"/>
      <point x="415" y="93" type="line"/>
      <point x="412" y="84" type="line"/>
      <point x="539" y="127"/>
      <point x="642" y="242"/>
      <point x="642" y="405" type="curve" smooth="yes"/>
      <point x="642" y="581"/>
      <point x="517" y="716"/>
      <point x="347" y="716" type="curve" smooth="yes"/>
      <point x="178" y="716"/>
      <point x="55" y="581"/>
      <point x="55" y="405" type="curve" smooth="yes"/>
      <point x="55" y="240"/>
      <point x="155" y="127"/>
      <point x="282" y="84" type="curve"/>
      <point x="279" y="93" type="line"/>
      <point x="279" y="10" type="line"/>
      <point x="286" y="21" type="line"/>
      <point x="73" y="21" type="line"/>
    </contour>
  </outline>
</glyph>
<glyph name="alpha" format="2">
  <advance width="655"/>
  <unicode hex="03B1"/>
  <anchor x="280" y="0" name="bottom"/>
  <anchor x="289" y="519" name="top"/>
  <outline>
    <contour>
      <point x="494" y="252" type="line" smooth="yes"/>
      <point x="472" y="174"/>
      <point x="436" y="15"/>
      <point x="281" y="13" type="curve"/>
      <point x="155" y="15"/>
      <point x="80" y="123"/>
      <point x="79" y="253" type="curve" smooth="yes"/>
      <point x="80" y="401"/>
      <point x="152" y="508"/>
      <point x="266" y="508" type="curve" smooth="yes"/>
      <point x="424" y="508"/>
      <point x="456" y="272"/>
      <point x="477" y="165" type="curve"/>
      <point x="496" y="204" type="line"/>
      <point x="482" y="313"/>
      <point x="443" y="529"/>
      <point x="272" y="529" type="curve" smooth="yes"/>
      <point x="146" y="529"/>
      <point x="61" y="419"/>
      <point x="61" y="255" type="curve" smooth="yes"/>
      <point x="61" y="108"/>
      <point x="146" y="-8"/>
      <point x="280" y="-8" type="curve" smooth="yes"/>
      <point x="383" y="-8"/>
      <point x="460" y="59"/>
      <point x="498" y="188" type="curve"/>
      <point x="598" y="519" type="line"/>
      <point x="569" y="519" type="line"/>
    </contour>
    <contour>
      <point x="596" y="14" type="line"/>
      <point x="567" y="28" type="line"/>
      <point x="532" y="48"/>
      <point x="502" y="101"/>
      <point x="493" y="167" type="curve"/>
      <point x="469" y="154" type="line"/>
      <point x="478" y="95"/>
      <point x="517" y="36"/>
      <point x="562" y="7" type="curve"/>
      <point x="590" y="-8" type="line"/>
    </contour>
  </outline>
</glyph>
<glyph name="beta" format="2">
  <advance width="626"/>
  <unicode hex="03B2"/>
  <outline>
    <contour>
      <point x="114" y="83" type="line"/>
      <point x="183" y="15"/>
      <point x="266" y="-8"/>
      <point x="330" y="-8" type="curve" smooth="yes"/>
      <point x="457" y="-8"/>
      <point x="560" y="97"/>
      <point x="558" y="219" type="curve"/>
      <point x="560" y="332"/>
      <point x="477" y="425"/>
      <point x="342" y="434" type="curve"/>
      <point x="342" y="438" type="line"/>
      <point x="417" y="483"/>
      <point x="467" y="537"/>
      <point x="467" y="612" type="curve" smooth="yes"/>
      <point x="467" y="691"/>
      <point x="411" y="773"/>
      <point x="288" y="771" type="curve"/>
      <point x="134" y="773"/>
      <point x="95" y="650"/>
      <point x="95" y="489" type="curve" smooth="yes"/>
      <point x="95" y="-209" type="line"/>
      <point x="118" y="-209" type="line"/>
      <point x="119" y="-122"/>
      <point x="119" y="-9"/>
      <point x="120" y="84" type="curve"/>
      <point x="120" y="93" type="line"/>
      <point x="119" y="187"/>
      <point x="119" y="288"/>
      <point x="119" y="476" type="curve" smooth="yes"/>
      <point x="119" y="640"/>
      <point x="156" y="748"/>
      <point x="291" y="748" type="curve" smooth="yes"/>
      <point x="396" y="748"/>
      <point x="443" y="679"/>
      <point x="443" y="617" type="curve" smooth="yes"/>
      <point x="443" y="543"/>
      <point x="380" y="459"/>
      <point x="235" y="425" type="curve"/>
      <point x="235" y="402" type="line"/>
      <point x="239" y="404"/>
      <point x="288" y="410"/>
      <point x="321" y="408" type="curve"/>
      <point x="453" y="410"/>
      <point x="536" y="324"/>
      <point x="536" y="218" type="curve" smooth="yes"/>
      <point x="536" y="104"/>
      <point x="442" y="14"/>
      <point x="330" y="12" type="curve"/>
      <point x="273" y="14"/>
      <point x="186" y="36"/>
      <point x="116" y="114" type="curve"/>
    </contour>
  </outline>
</glyph>
<glyph name="gamma" format="2">
  <advance width="488"/>
  <unicode hex="03B3"/>
  <outline>
    <contour>
      <point x="189" y="-209" type="line"/>
      <point x="236" y="98"/>
      <point x="260" y="353"/>
      <point x="58" y="528" type="curve"/>
      <point x="43" y="516" type="line"/>
      <point x="237" y="354"/>
      <point x="215" y="80"/>
      <point x="165" y="-209" type="curve"/>
    </contour>
    <contour>
      <point x="190" y="2" type="line"/>
      <point x="337" y="205"/>
      <point x="416" y="355"/>
      <point x="451" y="519" type="curve"/>
      <point x="428" y="519" type="line"/>
      <point x="402" y="364"/>
      <point x="291" y="191"/>
      <point x="197" y="51" type="curve"/>
    </contour>
  </outline>
</glyph>
<glyph name="epsilon" format="2">
  <advance width="462"/>
  <unicode hex="03B5"/>
  <anchor x="284" y="-24" name="bottom"/>
  <anchor x="274" y="556" name="top"/>
  <outline>
    <contour>
      <point x="407" y="34" type="line"/>
      <point x="376" y="24"/>
      <point x="318" y="15"/>
      <point x="274" y="13" type="curve"/>
      <point x="164" y="15"/>
      <point x="92" y="60"/>
      <point x="90" y="135" type="curve"/>
      <point x="92" y="218"/>
      <point x="184" y="262"/>
      <point x="299" y="260" type="curve"/>
      <point x="341" y="260" type="line"/>
      <point x="341" y="284" type="line"/>
      <point x="285" y="284" type="line" smooth="yes"/>
      <point x="190" y="284"/>
      <point x="115" y="334"/>
      <point x="115" y="401" type="curve" smooth="yes"/>
      <point x="115" y="449"/>
      <point x="155" y="509"/>
      <point x="260" y="509" type="curve" smooth="yes"/>
      <point x="305" y="509"/>
      <point x="371" y="501"/>
      <point x="398" y="485" type="curve"/>
      <point x="405" y="508" type="line"/>
      <point x="375" y="518"/>
      <point x="314" y="529"/>
      <point x="269" y="529" type="curve" smooth="yes"/>
      <point x="144" y="529"/>
      <point x="93" y="466"/>
      <point x="93" y="403" type="curve" smooth="yes"/>
      <point x="93" y="347"/>
      <point x="142" y="290"/>
      <point x="208" y="276" type="curve"/>
      <point x="208" y="274" type="line"/>
      <point x="124" y="255"/>
      <point x="70" y="205"/>
      <point x="70" y="135" type="curve" smooth="yes"/>
      <point x="70" y="52"/>
      <point x="152" y="-8"/>
      <point x="280" y="-8" type="curve" smooth="yes"/>
      <point x="333" y="-8"/>
      <point x="378" y="2"/>
      <point x="409" y="7" type="curve"/>
    </contour>
  </outline>
</glyph>
<glyph name="zeta" format="2">
  <advance width="492"/>
  <unicode hex="03B6"/>
  <outline>
    <contour>
      <point x="338" y="-145" type="curve" smooth="yes"/>
      <point x="417" y="-145"/>
      <point x="476" y="-103"/>
      <point x="474" y="-52" type="curve"/>
      <point x="476" y="-8"/>
      <point x="435" y="24"/>
      <point x="377" y="21" type="curve"/>
      <point x="344" y="24"/>
      <point x="310" y="13"/>
      <point x="253" y="10" type="curve"/>
      <point x="175" y="13"/>
      <point x="104" y="38"/>
      <point x="101" y="175" type="curve"/>
      <point x="103" y="342"/>
      <point x="201" y="557"/>
      <point x="412" y="711" type="curve"/>
      <point x="412" y="732" type="line"/>
      <point x="242" y="732" type="line"/>
      <point x="192" y="732"/>
      <point x="187" y="747"/>
      <point x="185" y="764" type="curve"/>
      <point x="187" y="769"/>
      <point x="191" y="786"/>
      <point x="197" y="791" type="curve"/>
      <point x="172" y="802" type="line"/>
      <point x="163" y="788"/>
      <point x="162" y="776"/>
      <point x="162" y="766" type="curve" smooth="yes"/>
      <point x="162" y="732"/>
      <point x="182" y="708"/>
      <point x="244" y="706" type="curve"/>
      <point x="375" y="706" type="line"/>
      <point x="374" y="715" type="line"/>
      <point x="270" y="647"/>
      <point x="79" y="408"/>
      <point x="79" y="177" type="curve" smooth="yes"/>
      <point x="79" y="1"/>
      <point x="194" y="-8"/>
      <point x="257" y="-8" type="curve" smooth="yes"/>
      <point x="317" y="-8"/>
      <point x="351" y="0"/>
      <point x="377" y="0" type="curve" smooth="yes"/>
      <point x="425" y="0"/>
      <point x="453" y="-22"/>
      <point x="453" y="-53" type="curve" smooth="yes"/>
      <point x="453" y="-93"/>
      <point x="402" y="-127"/>
      <point x="337" y="-127" type="curve" smooth="yes"/>
      <point x="311" y="-127"/>
      <point x="274" y="-121"/>
      <point x="240" y="-109" type="curve"/>
      <point x="240" y="-133" type="line"/>
      <point x="281" y="-141"/>
      <point x="315" y="-145"/>
    </contour>
  </outline>
</glyph>
<glyph name="eta" format="2">
  <advance width="556"/>
  <unicode hex="03B7"/>
  <anchor x="99" y="0" name="bottom"/>
  <anchor x="307" y="519" name="top"/>
  <outline>
    <contour>
      <point x="114" y="0" type="line"/>
      <point x="128" y="126"/>
      <point x="135" y="242"/>
      <point x="135" y="348" type="curve" smooth="yes"/>
      <point x="135" y="425"/>
      <point x="134" y="486"/>
      <point x="67" y="529" type="curve"/>
      <point x="56" y="509" type="line"/>
      <point x="92" y="491"/>
      <point x="114" y="473"/>
      <point x="112" y="334" type="curve"/>
      <point x="114" y="242"/>
      <point x="106" y="119"/>
      <point x="91" y="0" type="curve"/>
    </contour>
    <contour>
      <point x="409" y="-210" type="line"/>
      <point x="439" y="-120"/>
      <point x="471" y="96"/>
      <point x="470" y="252" type="curve" smooth="yes"/>
      <point x="471" y="443"/>
      <point x="425" y="529"/>
      <point x="319" y="529" type="curve" smooth="yes"/>
      <point x="212" y="529"/>
      <point x="153" y="440"/>
      <point x="124" y="355" type="curve"/>
      <point x="129" y="229" type="line"/>
      <point x="128" y="348"/>
      <point x="196" y="507"/>
      <point x="322" y="507" type="curve" smooth="yes"/>
      <point x="411" y="507"/>
      <point x="449" y="427"/>
      <point x="449" y="243" type="curve" smooth="yes"/>
      <point x="449" y="124"/>
      <point x="432" y="-51"/>
      <point x="390" y="-205" type="curve"/>
    </contour>
  </outline>
</glyph>
<glyph name="theta" format="2">
  <advance width="620"/>
  <unicode hex="03B8"/>
  <outline>
    <contour>
      <point x="312" y="-8" type="curve" smooth="yes"/>
      <point x="445" y="-8"/>
      <point x="543" y="159"/>
      <point x="543" y="383" type="curve" smooth="yes"/>
      <point x="543" y="616"/>
      <point x="446" y="773"/>
      <point x="312" y="771" type="curve"/>
      <point x="180" y="773"/>
      <point x="77" y="605"/>
      <point x="77" y="383" type="curve" smooth="yes"/>
      <point x="77" y="138"/>
      <point x="181" y="-8"/>
    </contour>
    <contour>
      <point x="307" y="12" type="curve"/>
      <point x="177" y="14"/>
      <point x="102" y="183"/>
      <point x="99" y="371" type="curve"/>
      <point x="101" y="597"/>
      <point x="203" y="749"/>
      <point x="315" y="749" type="curve" smooth="yes"/>
      <point x="445" y="749"/>
      <point x="520" y="587"/>
      <point x="521" y="392" type="curve"/>
      <point x="521" y="167"/>
      <point x="423" y="14"/>
    </contour>
    <contour>
      <point x="532" y="375" type="line"/>
      <point x="532" y="395" type="line"/>
      <point x="90" y="395" type="line"/>
      <point x="90" y="375" type="line"/>
    </contour>
  </outline>
</glyph>
<glyph name="iota" format="2">
  <advance width="245"/>
  <unicode hex="03B9"/>
  <anchor x="118" y="-22" name="bottom"/>
  <anchor x="97" y="-2" name="ogonek"/>
  <anchor x="108" y="517" name="top"/>
  <outline>
    <contour>
      <point x="157" y="-8" type="curve" smooth="yes"/>
      <point x="158" y="-8"/>
      <point x="176" y="-9"/>
      <point x="195" y="-1" type="curve"/>
      <point x="184" y="19" type="line"/>
      <point x="170" y="15"/>
      <point x="165" y="13"/>
      <point x="154" y="11" type="curve"/>
      <point x="122" y="13"/>
      <point x="115" y="35"/>
      <point x="112" y="111" type="curve"/>
      <point x="115" y="177"/>
      <point x="120" y="377"/>
      <point x="125" y="519" type="curve"/>
      <point x="99" y="519" type="line"/>
      <point x="94" y="368"/>
      <point x="92" y="208"/>
      <point x="92" y="77" type="curve" smooth="yes"/>
      <point x="92" y="9"/>
      <point x="124" y="-8"/>
    </contour>
  </outline>
</glyph>
<glyph name="kappa" format="2">
  <advance width="541"/>
  <unicode hex="03BA"/>
  <outline>
    <contour>
      <point x="95" y="-2" type="line"/>
      <point x="170" y="288"/>
      <point x="363" y="476"/>
      <point x="498" y="510" type="curve"/>
      <point x="498" y="529" type="line"/>
      <point x="390" y="509"/>
      <point x="207" y="371"/>
      <point x="120" y="132" type="curve"/>
      <point x="119" y="131" type="line"/>
      <point x="132" y="218"/>
      <point x="136" y="293"/>
      <point x="136" y="347" type="curve" smooth="yes"/>
      <point x="136" y="475"/>
      <point x="105" y="507"/>
      <point x="64" y="529" type="curve"/>
      <point x="53" y="509" type="line"/>
      <point x="101" y="488"/>
      <point x="111" y="444"/>
      <point x="109" y="349" type="curve"/>
      <point x="111" y="231"/>
      <point x="95" y="110"/>
      <point x="74" y="-2" type="curve"/>
    </contour>
    <contour>
      <point x="480" y="13" type="line"/>
      <point x="372" y="81"/>
      <point x="297" y="224"/>
      <point x="261" y="338" type="curve"/>
      <point x="236" y="316" type="line"/>
      <point x="279" y="204"/>
      <point x="377" y="47"/>
      <point x="468" y="-8" type="curve"/>
    </contour>
  </outline>
</glyph>
<glyph name="lambda" format="2">
  <advance width="595"/>
  <unicode hex="03BB"/>
  <outline>
    <contour>
      <point x="520" y="-8" type="curve" smooth="yes"/>
      <point x="530" y="-8"/>
      <point x="553" y="-2"/>
      <point x="559" y="1" type="curve"/>
      <point x="549" y="21" type="line"/>
      <point x="535" y="17"/>
      <point x="525" y="16"/>
      <point x="518" y="13" type="curve"/>
      <point x="490" y="16"/>
      <point x="461" y="41"/>
      <point x="402" y="212" type="curve"/>
      <point x="293" y="535" type="line" smooth="yes"/>
      <point x="249" y="665"/>
      <point x="215" y="773"/>
      <point x="128" y="771" type="curve"/>
      <point x="100" y="773"/>
      <point x="75" y="761"/>
      <point x="62" y="753" type="curve"/>
      <point x="72" y="735" type="line"/>
      <point x="84" y="743"/>
      <point x="106" y="751"/>
      <point x="127" y="751" type="curve" smooth="yes"/>
      <point x="197" y="751"/>
      <point x="222" y="670"/>
      <point x="262" y="543" type="curve"/>
      <point x="275" y="518" type="line"/>
      <point x="274" y="536" type="line"/>
      <point x="21" y="0" type="line"/>
      <point x="49" y="0" type="line"/>
      <point x="280" y="499" type="line"/>
      <point x="284" y="499" type="line"/>
      <point x="380" y="214" type="line"/>
      <point x="438" y="50"/>
      <point x="465" y="-8"/>
    </contour>
  </outline>
</glyph>
<glyph name="mu" format="2">
  <advance width="573"/>
  <unicode hex="03BC"/>
  <anchor x="306" y="0" name="bottom"/>
  <anchor x="459" y="519" name="horn"/>
  <anchor x="466" y="0" name="ogonek"/>
  <anchor x="286" y="519" name="top"/>
  <outline>
    <contour>
      <point x="122" y="-206" type="line"/>
      <point x="116" y="-114"/>
      <point x="116" y="4"/>
      <point x="116" y="94" type="curve"/>
      <point x="112" y="81" type="line"/>
      <point x="137" y="18"/>
      <point x="187" y="-8"/>
      <point x="255" y="-8" type="curve" smooth="yes"/>
      <point x="361" y="-8"/>
      <point x="427" y="52"/>
      <point x="456" y="122" type="curve"/>
      <point x="452" y="155" type="line"/>
      <point x="422" y="86"/>
      <point x="356" y="16"/>
      <point x="253" y="13" type="curve"/>
      <point x="111" y="16"/>
      <point x="113" y="171"/>
      <point x="113" y="259" type="curve" smooth="yes"/>
      <point x="113" y="519" type="line"/>
      <point x="88" y="519" type="line"/>
      <point x="88" y="279" type="line" smooth="yes"/>
      <point x="88" y="120"/>
      <point x="88" y="-50"/>
      <point x="95" y="-209" type="curve"/>
    </contour>
    <contour>
      <point x="522" y="13" type="line"/>
      <point x="516" y="16" type="line"/>
      <point x="492" y="32"/>
      <point x="471" y="63"/>
      <point x="471" y="109" type="curve" smooth="yes"/>
      <point x="471" y="519" type="line"/>
      <point x="450" y="519" type="line"/>
      <point x="450" y="146" type="line"/>
      <point x="448" y="109" type="line"/>
      <point x="447" y="52"/>
      <point x="469" y="16"/>
      <point x="502" y="-2" type="curve"/>
      <point x="511" y="-8" type="line"/>
    </contour>
  </outline>
</glyph>
<glyph name="nu" format="2">
  <advance width="477"/>
  <unicode hex="03BD"/>
  <outline>
    <contour>
      <point x="243" y="0" type="line"/>
      <point x="355" y="205"/>
      <point x="419" y="354"/>
      <point x="440" y="519" type="curve"/>
      <point x="415" y="519" type="line"/>
      <point x="403" y="363"/>
      <point x="322" y="205"/>
      <point x="231" y="22" type="curve"/>
    </contour>
    <contour>
      <point x="243" y="0" type="line"/>
      <point x="195" y="248"/>
      <point x="111" y="424"/>
      <point x="47" y="519" type="curve"/>
      <point x="17" y="519" type="line"/>
      <point x="100" y="419"/>
      <point x="181" y="198"/>
      <point x="221" y="0" type="curve"/>
    </contour>
  </outline>
</glyph>
<glyph name="xi" format="2">
  <advance width="480"/>
  <unicode hex="03BE"/>
  <outline>
    <contour>
      <point x="348" y="-145" type="curve" smooth="yes"/>
      <point x="423" y="-145"/>
      <point x="484" y="-103"/>
      <point x="482" y="-52" type="curve"/>
      <point x="484" y="-8"/>
      <point x="443" y="24"/>
      <point x="384" y="21" type="curve"/>
      <point x="353" y="24"/>
      <point x="315" y="13"/>
      <point x="273" y="10" type="curve"/>
      <point x="152" y="13"/>
      <point x="65" y="96"/>
      <point x="65" y="194" type="curve" smooth="yes"/>
      <point x="65" y="307"/>
      <point x="179" y="386"/>
      <point x="328" y="386" type="curve"/>
      <point x="343" y="386" type="line"/>
      <point x="343" y="403" type="line"/>
      <point x="304" y="403" type="line"/>
      <point x="195" y="406"/>
      <point x="111" y="474"/>
      <point x="113" y="560" type="curve" smooth="yes"/>
      <point x="115" y="650"/>
      <point x="204" y="715"/>
      <point x="312" y="711" type="curve"/>
      <point x="361" y="713"/>
      <point x="402" y="709"/>
      <point x="447" y="705" type="curve"/>
      <point x="449" y="732" type="line"/>
      <point x="228" y="732" type="line"/>
      <point x="175" y="732"/>
      <point x="171" y="747"/>
      <point x="168" y="764" type="curve"/>
      <point x="171" y="769"/>
      <point x="175" y="786"/>
      <point x="178" y="791" type="curve"/>
      <point x="158" y="802" type="line"/>
      <point x="149" y="788"/>
      <point x="148" y="776"/>
      <point x="148" y="766" type="curve" smooth="yes"/>
      <point x="148" y="732"/>
      <point x="167" y="707"/>
      <point x="230" y="705" type="curve"/>
      <point x="293" y="728" type="line"/>
      <point x="177" y="728"/>
      <point x="86" y="659"/>
      <point x="86" y="555" type="curve" smooth="yes"/>
      <point x="86" y="456"/>
      <point x="175" y="379"/>
      <point x="293" y="387" type="curve"/>
      <point x="293" y="400" type="line"/>
      <point x="154" y="407"/>
      <point x="45" y="326"/>
      <point x="44" y="202" type="curve" smooth="yes"/>
      <point x="45" y="82"/>
      <point x="142" y="-8"/>
      <point x="276" y="-8" type="curve" smooth="yes"/>
      <point x="314" y="-8"/>
      <point x="362" y="0"/>
      <point x="387" y="0" type="curve" smooth="yes"/>
      <point x="432" y="0"/>
      <point x="460" y="-22"/>
      <point x="460" y="-53" type="curve" smooth="yes"/>
      <point x="460" y="-93"/>
      <point x="412" y="-127"/>
      <point x="347" y="-127" type="curve" smooth="yes"/>
      <point x="318" y="-127"/>
      <point x="281" y="-121"/>
      <point x="247" y="-109" type="curve"/>
      <point x="247" y="-133" type="line"/>
      <point x="288" y="-141"/>
      <point x="322" y="-145"/>
    </contour>
  </outline>
</glyph>
<glyph name="omicron" format="2">
  <advance width="610"/>
  <unicode hex="03BF"/>
  <anchor x="305" y="519" name="top"/>
  <outline>
    <contour>
      <point x="305" y="-8" type="curve" smooth="yes"/>
      <point x="455" y="-8"/>
      <point x="560" y="107"/>
      <point x="558" y="259" type="curve"/>
      <point x="560" y="418"/>
      <point x="455" y="529"/>
      <point x="305" y="529" type="curve" smooth="yes"/>
      <point x="156" y="529"/>
      <point x="52" y="418"/>
      <point x="52" y="259" type="curve" smooth="yes"/>
      <point x="52" y="107"/>
      <point x="156" y="-8"/>
    </contour>
    <contour>
      <point x="305" y="14" type="curve"/>
      <point x="175" y="16"/>
      <point x="73" y="115"/>
      <point x="73" y="259" type="curve" smooth="yes"/>
      <point x="73" y="408"/>
      <point x="175" y="507"/>
      <point x="305" y="507" type="curve" smooth="yes"/>
      <point x="441" y="507"/>
      <point x="538" y="408"/>
      <point x="538" y="259" type="curve" smooth="yes"/>
      <point x="538" y="115"/>
      <point x="441" y="16"/>
    </contour>
  </outline>
</glyph>
<glyph name="pi" format="2">
  <advance width="600"/>
  <unicode hex="03C0"/>
  <anchor x="293" y="594" name="top"/>
  <outline>
    <contour>
      <point x="194" y="507" type="line"/>
      <point x="195" y="318"/>
      <point x="169" y="172"/>
      <point x="132" y="0" type="curve"/>
      <point x="151" y="0" type="line"/>
      <point x="194" y="178"/>
      <point x="218" y="335"/>
      <point x="214" y="507" type="curve"/>
    </contour>
    <contour>
      <point x="58" y="433" type="line"/>
      <point x="88" y="504"/>
      <point x="129" y="500"/>
      <point x="214" y="500" type="curve" smooth="yes"/>
      <point x="549" y="500" type="line"/>
      <point x="549" y="519" type="line"/>
      <point x="193" y="519" type="line" smooth="yes"/>
      <point x="116" y="519"/>
      <point x="73" y="513"/>
      <point x="37" y="441" type="curve"/>
    </contour>
    <contour>
      <point x="472" y="-8" type="curve" smooth="yes"/>
      <point x="488" y="-8"/>
      <point x="502" y="-5"/>
      <point x="514" y="3" type="curve"/>
      <point x="505" y="21" type="line"/>
      <point x="494" y="14"/>
      <point x="484" y="11"/>
      <point x="471" y="11" type="curve" smooth="yes"/>
      <point x="440" y="11"/>
      <point x="426" y="35"/>
      <point x="431" y="113" type="curve" smooth="yes"/>
      <point x="449" y="508" type="line"/>
      <point x="429" y="508" type="line"/>
      <point x="412" y="114" type="line"/>
      <point x="407" y="19"/>
      <point x="422" y="-8"/>
    </contour>
  </outline>
</glyph>
<glyph name="rho" format="2">
  <advance width="594"/>
  <unicode hex="03C1"/>
  <outline>
    <contour>
      <point x="121" y="-206" type="line"/>
      <point x="94" y="-12"/>
      <point x="82" y="41"/>
      <point x="87" y="225" type="curve" smooth="yes"/>
      <point x="94" y="413"/>
      <point x="174" y="509"/>
      <point x="299" y="509" type="curve" smooth="yes"/>
      <point x="441" y="509"/>
      <point x="513" y="389"/>
      <point x="513" y="268" type="curve" smooth="yes"/>
      <point x="513" y="122"/>
      <point x="411" y="6"/>
      <point x="290" y="6" type="curve" smooth="yes"/>
      <point x="221" y="6"/>
      <point x="147" y="44"/>
      <point x="79" y="177" type="curve"/>
      <point x="77" y="123" type="line"/>
      <point x="141" y="25"/>
      <point x="210" y="-8"/>
      <point x="285" y="-8" type="curve" smooth="yes"/>
      <point x="408" y="-8"/>
      <point x="535" y="88"/>
      <point x="535" y="268" type="curve" smooth="yes"/>
      <point x="535" y="416"/>
      <point x="456" y="528"/>
      <point x="295" y="529" type="curve" smooth="yes"/>
      <point x="140" y="528"/>
      <point x="64" y="424"/>
      <point x="64" y="167" type="curve" smooth="yes"/>
      <point x="64" y="26"/>
      <point x="84" y="-129"/>
      <point x="98" y="-209" type="curve"/>
    </contour>
  </outline>
</glyph>
<glyph name="sigmafinal" format="2">
  <advance width="537"/>
  <unicode hex="03C2"/>
  <outline>
    <contour>
      <point x="345" y="-146" type="curve" smooth="yes"/>
      <point x="423" y="-146"/>
      <point x="484" y="-103"/>
      <point x="482" y="-52" type="curve"/>
      <point x="484" y="-8"/>
      <point x="442" y="25"/>
      <point x="383" y="22" type="curve"/>
      <point x="353" y="25"/>
      <point x="311" y="14"/>
      <point x="278" y="12" type="curve"/>
      <point x="162" y="14"/>
      <point x="79" y="121"/>
      <point x="79" y="252" type="curve" smooth="yes"/>
      <point x="79" y="402"/>
      <point x="178" y="507"/>
      <point x="307" y="507" type="curve" smooth="yes"/>
      <point x="380" y="507"/>
      <point x="452" y="473"/>
      <point x="479" y="438" type="curve"/>
      <point x="492" y="457" type="line"/>
      <point x="459" y="500"/>
      <point x="375" y="529"/>
      <point x="303" y="529" type="curve" smooth="yes"/>
      <point x="161" y="529"/>
      <point x="60" y="415"/>
      <point x="60" y="254" type="curve" smooth="yes"/>
      <point x="60" y="112"/>
      <point x="147" y="-8"/>
      <point x="280" y="-8" type="curve" smooth="yes"/>
      <point x="312" y="-8"/>
      <point x="360" y="0"/>
      <point x="385" y="0" type="curve" smooth="yes"/>
      <point x="431" y="0"/>
      <point x="458" y="-22"/>
      <point x="458" y="-52" type="curve" smooth="yes"/>
      <point x="458" y="-91"/>
      <point x="407" y="-125"/>
      <point x="345" y="-125" type="curve" smooth="yes"/>
      <point x="317" y="-125"/>
      <point x="280" y="-119"/>
      <point x="247" y="-107" type="curve"/>
      <point x="247" y="-133" type="line"/>
      <point x="287" y="-141"/>
      <point x="321" y="-146"/>
    </contour>
  </outline>
</glyph>
<glyph name="sigma" format="2">
  <advance width="663"/>
  <unicode hex="03C3"/>
  <anchor x="312" y="519" name="top"/>
  <outline>
    <component base="omicron" xOffset="6"/>
    <contour>
      <point x="370" y="510" type="line"/>
      <point x="553" y="499"/>
      <point x="527" y="497"/>
      <point x="604" y="488" type="curve"/>
      <point x="604" y="514" type="line"/>
      <point x="493" y="523"/>
      <point x="422" y="529"/>
      <point x="311" y="529" type="curve"/>
    </contour>
  </outline>
</glyph>
<glyph name="tau" format="2">
  <advance width="456"/>
  <unicode hex="03C4"/>
  <outline>
    <contour>
      <point x="49" y="434" type="line"/>
      <point x="73" y="503"/>
      <point x="111" y="499"/>
      <point x="210" y="499" type="curve" smooth="yes"/>
      <point x="432" y="499" type="line"/>
      <point x="432" y="519" type="line"/>
      <point x="194" y="519" type="line" smooth="yes"/>
      <point x="99" y="519"/>
      <point x="58" y="513"/>
      <point x="21" y="440" type="curve"/>
    </contour>
    <contour>
      <point x="283" y="-8" type="curve" smooth="yes"/>
      <point x="285" y="-8"/>
      <point x="299" y="-9"/>
      <point x="319" y="-1" type="curve"/>
      <point x="310" y="19" type="line"/>
      <point x="295" y="15"/>
      <point x="290" y="13"/>
      <point x="281" y="11" type="curve"/>
      <point x="248" y="13"/>
      <point x="238" y="35"/>
      <point x="238" y="111" type="curve" smooth="yes"/>
      <point x="238" y="177"/>
      <point x="248" y="377"/>
      <point x="258" y="501" type="curve"/>
      <point x="235" y="501" type="line"/>
      <point x="226" y="368"/>
      <point x="218" y="208"/>
      <point x="218" y="76" type="curve" smooth="yes"/>
      <point x="218" y="9"/>
      <point x="249" y="-8"/>
    </contour>
  </outline>
</glyph>
<glyph name="upsilon" format="2">
  <advance width="531"/>
  <unicode hex="03C5"/>
  <anchor x="239" y="519" name="top"/>
  <outline>
    <contour>
      <point x="83" y="162" type="curve" smooth="yes"/>
      <point x="83" y="28"/>
      <point x="185" y="-8"/>
      <point x="267" y="-8" type="curve" smooth="yes"/>
      <point x="374" y="-8"/>
      <point x="458" y="60"/>
      <point x="458" y="267" type="curve" smooth="yes"/>
      <point x="458" y="319"/>
      <point x="451" y="431"/>
      <point x="431" y="519" type="curve"/>
      <point x="409" y="519" type="line"/>
      <point x="431" y="428"/>
      <point x="439" y="322"/>
      <point x="439" y="269" type="curve" smooth="yes"/>
      <point x="439" y="91"/>
      <point x="377" y="16"/>
      <point x="269" y="14" type="curve"/>
      <point x="187" y="16"/>
      <point x="105" y="54"/>
      <point x="103" y="160" type="curve"/>
      <point x="105" y="192"/>
      <point x="112" y="283"/>
      <point x="112" y="331" type="curve" smooth="yes"/>
      <point x="112" y="393"/>
      <point x="104" y="450"/>
      <point x="84" y="519" type="curve"/>
      <point x="65" y="519" type="line"/>
      <point x="84" y="440"/>
      <point x="89" y="376"/>
      <point x="89" y="322" type="curve" smooth="yes"/>
      <point x="89" y="267"/>
      <point x="83" y="195"/>
    </contour>
  </outline>
</glyph>
<glyph name="phi" format="2">
  <advance width="700"/>
  <unicode hex="03C6"/>
  <outline>
    <contour>
      <point x="357" y="-209" type="line"/>
      <point x="358" y="322" type="line" smooth="yes"/>
      <point x="358" y="455"/>
      <point x="402" y="509"/>
      <point x="468" y="509" type="curve" smooth="yes"/>
      <point x="559" y="509"/>
      <point x="624" y="406"/>
      <point x="624" y="268" type="curve" smooth="yes"/>
      <point x="624" y="93"/>
      <point x="533" y="8"/>
      <point x="352" y="8" type="curve"/>
      <point x="352" y="-8" type="line"/>
      <point x="544" y="-8"/>
      <point x="647" y="76"/>
      <point x="647" y="270" type="curve" smooth="yes"/>
      <point x="647" y="424"/>
      <point x="577" y="528"/>
      <point x="468" y="529" type="curve" smooth="yes"/>
      <point x="393" y="528"/>
      <point x="337" y="477"/>
      <point x="335" y="337" type="curve"/>
      <point x="335" y="-209" type="line"/>
    </contour>
    <contour>
      <point x="93" y="253" type="curve" smooth="yes"/>
      <point x="93" y="98"/>
      <point x="181" y="-8"/>
      <point x="349" y="-8" type="curve"/>
      <point x="352" y="8" type="line"/>
      <point x="195" y="8"/>
      <point x="121" y="118"/>
      <point x="121" y="249" type="curve" smooth="yes"/>
      <point x="121" y="329"/>
      <point x="145" y="438"/>
      <point x="178" y="506" type="curve"/>
      <point x="158" y="519" type="line"/>
      <point x="124" y="430"/>
      <point x="93" y="342"/>
    </contour>
  </outline>
</glyph>
<glyph name="chi" format="2">
  <advance width="532"/>
  <unicode hex="03C7"/>
  <outline>
    <contour>
      <point x="53" y="-209" type="line"/>
      <point x="173" y="52"/>
      <point x="320" y="291"/>
      <point x="469" y="519" type="curve"/>
      <point x="447" y="519" type="line"/>
      <point x="289" y="281"/>
      <point x="148" y="47"/>
      <point x="29" y="-209" type="curve"/>
    </contour>
    <contour>
      <point x="477" y="-213" type="curve" smooth="yes"/>
      <point x="503" y="-213"/>
      <point x="517" y="-205"/>
      <point x="522" y="-203" type="curve"/>
      <point x="512" y="-181" type="line"/>
      <point x="498" y="-189"/>
      <point x="485" y="-191"/>
      <point x="475" y="-188" type="curve"/>
      <point x="436" y="-191"/>
      <point x="419" y="-147"/>
      <point x="396" y="-100" type="curve"/>
      <point x="181" y="383" type="line" smooth="yes"/>
      <point x="159" y="434"/>
      <point x="125" y="524"/>
      <point x="56" y="524" type="curve" smooth="yes"/>
      <point x="37" y="524"/>
      <point x="18" y="516"/>
      <point x="9" y="513" type="curve"/>
      <point x="14" y="493" type="line"/>
      <point x="24" y="499"/>
      <point x="42" y="505"/>
      <point x="58" y="505" type="curve" smooth="yes"/>
      <point x="110" y="505"/>
      <point x="131" y="447"/>
      <point x="158" y="382" type="curve"/>
      <point x="386" y="-132" type="line"/>
      <point x="396" y="-153"/>
      <point x="426" y="-213"/>
    </contour>
  </outline>
</glyph>
<glyph name="psi" format="2">
  <advance width="725"/>
  <unicode hex="03C8"/>
  <outline>
    <contour>
      <point x="94" y="233" type="line" smooth="yes"/>
      <point x="94" y="72"/>
      <point x="194" y="-8"/>
      <point x="354" y="-8" type="curve"/>
      <point x="357" y="7" type="line"/>
      <point x="204" y="7"/>
      <point x="115" y="91"/>
      <point x="116" y="234" type="curve"/>
      <point x="115" y="264"/>
      <point x="117" y="345"/>
      <point x="118" y="418" type="curve"/>
      <point x="117" y="459"/>
      <point x="115" y="495"/>
      <point x="110" y="519" type="curve"/>
      <point x="85" y="519" type="line"/>
      <point x="94" y="477"/>
      <point x="94" y="447"/>
      <point x="94" y="404" type="curve" smooth="yes"/>
    </contour>
    <contour>
      <point x="352" y="-225" type="line"/>
      <point x="373" y="-225" type="line"/>
      <point x="373" y="689" type="line"/>
      <point x="352" y="689" type="line"/>
    </contour>
    <contour>
      <point x="626" y="404" type="line"/>
      <point x="628" y="447"/>
      <point x="628" y="477"/>
      <point x="636" y="519" type="curve"/>
      <point x="614" y="519" type="line"/>
      <point x="606" y="495"/>
      <point x="606" y="459"/>
      <point x="606" y="418" type="curve" smooth="yes"/>
      <point x="606" y="345"/>
      <point x="608" y="264"/>
      <point x="608" y="234" type="curve" smooth="yes"/>
      <point x="608" y="87"/>
      <point x="517" y="7"/>
      <point x="368" y="7" type="curve"/>
      <point x="371" y="-8" type="line"/>
      <point x="529" y="-8"/>
      <point x="628" y="72"/>
      <point x="626" y="233" type="curve"/>
    </contour>
  </outline>
</glyph>
<glyph name="omega" format="2">
  <advance width="753"/>
  <unicode hex="03C9"/>
  <anchor x="376" y="0" name="bottom"/>
  <anchor x="377" y="519" name="top"/>
  <outline>
    <contour>
      <point x="72" y="249" type="curve" smooth="yes"/>
      <point x="72" y="103"/>
      <point x="145" y="-8"/>
      <point x="242" y="-8" type="curve" smooth="yes"/>
      <point x="297" y="-8"/>
      <point x="354" y="30"/>
      <point x="376" y="78" type="curve"/>
      <point x="380" y="78" type="line"/>
      <point x="403" y="30"/>
      <point x="464" y="-8"/>
      <point x="521" y="-8" type="curve" smooth="yes"/>
      <point x="613" y="-8"/>
      <point x="684" y="102"/>
      <point x="684" y="245" type="curve" smooth="yes"/>
      <point x="684" y="382"/>
      <point x="646" y="457"/>
      <point x="613" y="518" type="curve"/>
      <point x="584" y="517" type="line"/>
      <point x="631" y="438"/>
      <point x="663" y="373"/>
      <point x="663" y="249" type="curve" smooth="yes"/>
      <point x="663" y="116"/>
      <point x="601" y="15"/>
      <point x="517" y="13" type="curve"/>
      <point x="445" y="15"/>
      <point x="391" y="81"/>
      <point x="391" y="169" type="curve" smooth="yes"/>
      <point x="391" y="205"/>
      <point x="390" y="312"/>
      <point x="392" y="382" type="curve"/>
      <point x="366" y="382" type="line"/>
      <point x="366" y="313"/>
      <point x="368" y="209"/>
      <point x="368" y="171" type="curve" smooth="yes"/>
      <point x="368" y="81"/>
      <point x="315" y="15"/>
      <point x="244" y="13" type="curve"/>
      <point x="158" y="15"/>
      <point x="95" y="117"/>
      <point x="93" y="250" type="curve"/>
      <point x="95" y="374"/>
      <point x="130" y="450"/>
      <point x="171" y="517" type="curve"/>
      <point x="144" y="518" type="line"/>
      <point x="117" y="462"/>
      <point x="72" y="381"/>
    </contour>
  </outline>
</glyph>
<glyph name="KaiSymbol" format="2">
  <advance width="621"/>
  <unicode hex="03CF"/>
  <anchor x="304" y="0" name="bottom"/>
  <anchor x="306" y="720" name="top"/>
  <outline>
    <component base="K"/>
    <contour>
      <point x="504" y="-206" type="line"/>
      <point x="512" y="-121"/>
      <point x="546" y="-34"/>
      <point x="613" y="-4" type="curve"/>
      <point x="613" y="0" type="line"/>
      <point x="580" y="0" type="line"/>
      <point x="580" y="-3" type="line"/>
      <point x="584" y="0" type="line"/>
      <point x="528" y="-30"/>
      <point x="486" y="-122"/>
      <point x="479" y="-206" type="curve"/>
    </contour>
  </outline>
</glyph>
<glyph name="kaiSymbol" format="2">
  <advance width="540"/>
  <unicode hex="03D7"/>
  <outline>
    <component base="kappa"/>
    <contour>
      <point x="480" y="14" type="line"/>
      <point x="454" y="5" type="line"/>
      <point x="454" y="-69" type="line" smooth="yes"/>
      <point x="454" y="-137"/>
      <point x="444" y="-194"/>
      <point x="383" y="-191" type="curve"/>
      <point x="363" y="-194"/>
      <point x="343" y="-184"/>
      <point x="327" y="-178" type="curve"/>
      <point x="319" y="-203" type="line"/>
      <point x="342" y="-211"/>
      <point x="363" y="-217"/>
      <point x="384" y="-217" type="curve" smooth="yes"/>
      <point x="445" y="-217"/>
      <point x="482" y="-173"/>
      <point x="480" y="-73" type="curve"/>
    </contour>
  </outline>
</glyph>
<glyph name="Dzhe-cy" format="2">
  <advance width="687"/>
  <unicode hex="040F"/>
  <outline>
    <contour>
      <point x="353" y="-136" type="line"/>
      <point x="353" y="0" type="line"/>
      <point x="588" y="0" type="line"/>
      <point x="588" y="710" type="line"/>
      <point x="568" y="710" type="line"/>
      <point x="568" y="20" type="line"/>
      <point x="119" y="20" type="line"/>
      <point x="119" y="710" type="line"/>
      <point x="99" y="710" type="line"/>
      <point x="99" y="0" type="line"/>
      <point x="333" y="0" type="line"/>
      <point x="333" y="-136" type="line"/>
    </contour>
  </outline>
</glyph>
<glyph name="Pe-cy" format="2">
  <advance width="704"/>
  <unicode hex="041F"/>
  <anchor x="585" y="0" name="bottomright"/>
  <outline>
    <contour>
      <point x="119" y="0" type="line"/>
      <point x="119" y="690" type="line"/>
      <point x="585" y="690" type="line"/>
      <point x="585" y="0" type="line"/>
      <point x="605" y="0" type="line"/>
      <point x="605" y="710" type="line"/>
      <point x="99" y="710" type="line"/>
      <point x="99" y="0" type="line"/>
    </contour>
  </outline>
</glyph>
<glyph name="be-cy" format="2">
  <advance width="596"/>
  <unicode hex="0431"/>
  <outline>
    <contour>
      <point x="308" y="-10" type="curve" smooth="yes"/>
      <point x="464" y="-10"/>
      <point x="550" y="84"/>
      <point x="550" y="238" type="curve" smooth="yes"/>
      <point x="550" y="385"/>
      <point x="468" y="487"/>
      <point x="308" y="487" type="curve" smooth="yes"/>
      <point x="206" y="487"/>
      <point x="123" y="437"/>
      <point x="89" y="347" type="curve"/>
      <point x="102" y="527"/>
      <point x="169" y="599"/>
      <point x="314" y="653" type="curve" smooth="yes"/>
      <point x="517" y="730" type="line"/>
      <point x="509" y="749" type="line"/>
      <point x="294" y="666" type="line" smooth="yes"/>
      <point x="150" y="611"/>
      <point x="66" y="531"/>
      <point x="66" y="267" type="curve" smooth="yes"/>
      <point x="66" y="100"/>
      <point x="147" y="-10"/>
    </contour>
    <contour>
      <point x="308" y="10" type="curve" smooth="yes"/>
      <point x="162" y="10"/>
      <point x="87" y="109"/>
      <point x="87" y="238" type="curve" smooth="yes"/>
      <point x="87" y="388"/>
      <point x="183" y="467"/>
      <point x="308" y="467" type="curve" smooth="yes"/>
      <point x="455" y="467"/>
      <point x="530" y="373"/>
      <point x="530" y="238" type="curve" smooth="yes"/>
      <point x="530" y="100"/>
      <point x="452" y="10"/>
    </contour>
  </outline>
  <guideline angle="0" x="0" y="227"/>
  <guideline angle="90" x="308" y="0"/>
  <guideline angle="90" x="517" y="0"/>
</glyph>
<glyph name="ka-cy" format="2">
  <advance width="471"/>
  <unicode hex="043A"/>
  <anchor x="411" y="0" name="bottomright"/>
  <anchor x="222" y="519" name="top"/>
  <outline>
    <contour>
      <point x="104" y="0" type="line"/>
      <point x="104" y="256" type="line"/>
      <point x="181" y="256" type="line"/>
      <point x="409" y="0" type="line"/>
      <point x="436" y="0" type="line"/>
      <point x="198" y="266" type="line"/>
      <point x="406" y="519" type="line"/>
      <point x="380" y="519" type="line"/>
      <point x="181" y="275" type="line"/>
      <point x="104" y="275" type="line"/>
      <point x="104" y="519" type="line"/>
      <point x="84" y="519" type="line"/>
      <point x="84" y="0" type="line"/>
    </contour>
  </outline>
</glyph>
<glyph name="el-cy" format="2">
  <advance width="548"/>
  <unicode hex="043B"/>
  <outline>
    <contour>
      <point x="25" y="0" type="line"/>
      <point x="118" y="0"/>
      <point x="173" y="86"/>
      <point x="181" y="388" type="curve" smooth="yes"/>
      <point x="184" y="500" type="line"/>
      <point x="444" y="500" type="line"/>
      <point x="444" y="0" type="line"/>
      <point x="464" y="0" type="line"/>
      <point x="464" y="519" type="line"/>
      <point x="165" y="519" type="line"/>
      <point x="161" y="388" type="line" smooth="yes"/>
      <point x="152" y="95"/>
      <point x="99" y="20"/>
      <point x="25" y="20" type="curve"/>
    </contour>
  </outline>
</glyph>
<glyph name="Ghestroke-cy" format="2">
  <advance width="529"/>
  <unicode hex="0492"/>
  <outline>
    <component base="Ge-cy" xOffset="31"/>
    <contour>
      <point x="380" y="347" type="line"/>
      <point x="380" y="367" type="line"/>
      <point x="0" y="367" type="line"/>
      <point x="0" y="347" type="line"/>
    </contour>
  </outline>
</glyph>
<glyph name="ghestroke-cy" format="2">
  <advance width="388"/>
  <unicode hex="0493"/>
  <outline>
    <component base="ge-cy" xOffset="-4"/>
    <contour>
      <point x="270" y="249" type="line"/>
      <point x="270" y="269" type="line"/>
      <point x="-10" y="269" type="line"/>
      <point x="-10" y="249" type="line"/>
    </contour>
  </outline>
</glyph>
<glyph name="Zhedescender-cy" format="2">
  <advance width="936"/>
  <unicode hex="0496"/>
  <outline>
    <component base="Zhe-cy"/>
    <contour>
      <point x="936" y="-135" type="line"/>
      <point x="936" y="20" type="line"/>
      <point x="864" y="20" type="line"/>
      <point x="864" y="0" type="line"/>
      <point x="916" y="0" type="line"/>
      <point x="916" y="-135" type="line"/>
    </contour>
  </outline>
</glyph>
<glyph name="zhedescender-cy" format="2">
  <advance width="740"/>
  <unicode hex="0497"/>
  <outline>
    <component base="zhe-cy"/>
    <contour>
      <point x="740" y="-117" type="line"/>
      <point x="740" y="19" type="line"/>
      <point x="679" y="19" type="line"/>
      <point x="679" y="0" type="line"/>
      <point x="720" y="0" type="line"/>
      <point x="720" y="-117" type="line"/>
    </contour>
  </outline>
</glyph>
<glyph name="Kadescender-cy" format="2">
  <advance width="610"/>
  <unicode hex="049A"/>
  <outline>
    <component base="Ka-cy"/>
    <contour>
      <point x="610" y="-135" type="line"/>
      <point x="610" y="20" type="line"/>
      <point x="538" y="20" type="line"/>
      <point x="538" y="0" type="line"/>
      <point x="590" y="0" type="line"/>
      <point x="590" y="-135" type="line"/>
    </contour>
  </outline>
</glyph>
<glyph name="kadescender-cy" format="2">
  <advance width="470"/>
  <unicode hex="049B"/>
  <outline>
    <component base="ka-cy"/>
    <contour>
      <point x="470" y="-117" type="line"/>
      <point x="470" y="19" type="line"/>
      <point x="409" y="19" type="line"/>
      <point x="409" y="0" type="line"/>
      <point x="450" y="0" type="line"/>
      <point x="450" y="-117" type="line"/>
    </contour>
  </outline>
</glyph>
<glyph name="kaverticalstroke-cy" format="2">
  <advance width="501"/>
  <unicode hex="049D"/>
  <anchor x="200" y="243" name="_center"/>
  <outline>
    <contour>
      <point x="104" y="0" type="line"/>
      <point x="104" y="256" type="line"/>
      <point x="231" y="256" type="line"/>
      <point x="441" y="0" type="line"/>
      <point x="466" y="0" type="line"/>
      <point x="248" y="266" type="line"/>
      <point x="436" y="519" type="line"/>
      <point x="410" y="519" type="line"/>
      <point x="231" y="275" type="line"/>
      <point x="104" y="275" type="line"/>
      <point x="104" y="519" type="line"/>
      <point x="84" y="519" type="line"/>
      <point x="84" y="0" type="line"/>
    </contour>
    <contour>
      <point x="209" y="383" type="line"/>
      <point x="189" y="383" type="line"/>
      <point x="189" y="135" type="line"/>
      <point x="209" y="135" type="line"/>
    </contour>
  </outline>
</glyph>
<glyph name="Kabashkir-cy" format="2">
  <advance width="683"/>
  <unicode hex="04A0"/>
  <outline>
    <component base="Ka-cy" xOffset="112"/>
    <contour>
      <point x="211" y="690" type="line"/>
      <point x="211" y="710" type="line"/>
      <point x="0" y="710" type="line"/>
      <point x="0" y="690" type="line"/>
    </contour>
  </outline>
</glyph>
<glyph name="kabashkir-cy" format="2">
  <advance width="545"/>
  <unicode hex="04A1"/>
  <outline>
    <component base="ka-cy" xOffset="91"/>
    <contour>
      <point x="175" y="500" type="line"/>
      <point x="175" y="519" type="line"/>
      <point x="0" y="519" type="line"/>
      <point x="0" y="500" type="line"/>
    </contour>
  </outline>
</glyph>
<glyph name="Endescender-cy" format="2">
  <advance width="769"/>
  <unicode hex="04A2"/>
  <anchor x="612" y="0" name="_bottomright"/>
  <outline>
    <component base="En-cy"/>
    <contour>
      <point x="714" y="-135" type="line"/>
      <point x="714" y="20" type="line"/>
      <point x="612" y="20" type="line"/>
      <point x="612" y="0" type="line"/>
      <point x="694" y="0" type="line"/>
      <point x="694" y="-135" type="line"/>
    </contour>
  </outline>
</glyph>
<glyph name="endescender-cy" format="2">
  <advance width="583"/>
  <unicode hex="04A3"/>
  <anchor x="464" y="0" name="_bottomright"/>
  <outline>
    <component base="en-cy"/>
    <contour>
      <point x="553" y="-117" type="line"/>
      <point x="553" y="19" type="line"/>
      <point x="464" y="19" type="line"/>
      <point x="464" y="0" type="line"/>
      <point x="533" y="0" type="line"/>
      <point x="533" y="-117" type="line"/>
    </contour>
  </outline>
</glyph>
<glyph name="Enghe-cy" format="2">
  <advance width="1011"/>
  <unicode hex="04A4"/>
  <outline>
    <component base="H"/>
    <contour>
      <point x="991" y="690" type="line"/>
      <point x="991" y="710" type="line"/>
      <point x="612" y="710" type="line"/>
      <point x="632" y="690" type="line"/>
    </contour>
  </outline>
</glyph>
<glyph name="enghe-cy" format="2">
  <advance width="772"/>
  <unicode hex="04A5"/>
  <outline>
    <component base="en-cy"/>
    <contour>
      <point x="748" y="500" type="line"/>
      <point x="748" y="519" type="line"/>
      <point x="464" y="519" type="line"/>
      <point x="484" y="500" type="line"/>
    </contour>
  </outline>
</glyph>
<glyph name="Esdescender-cy" format="2">
  <advance width="697"/>
  <unicode hex="04AA"/>
  <outline>
    <component base="Es-cy"/>
    <contour>
      <point x="386" y="-140" type="line"/>
      <point x="386" y="6" type="line"/>
      <point x="366" y="-5" type="line"/>
      <point x="366" y="-140" type="line"/>
    </contour>
  </outline>
</glyph>
<glyph name="esdescender-cy" format="2">
  <advance width="538"/>
  <unicode hex="04AB"/>
  <outline>
    <component base="es-cy"/>
    <contour>
      <point x="307" y="-117" type="line"/>
      <point x="307" y="0" type="line"/>
      <point x="287" y="0" type="line"/>
      <point x="287" y="-117" type="line"/>
    </contour>
  </outline>
</glyph>
<glyph name="ustrait-cy" format="2">
  <advance width="520"/>
  <unicode hex="04AF"/>
  <outline>
    <contour>
      <point x="270" y="-213" type="line"/>
      <point x="270" y="2" type="line"/>
      <point x="495" y="519" type="line"/>
      <point x="473" y="519" type="line"/>
      <point x="260" y="29" type="line"/>
      <point x="47" y="519" type="line"/>
      <point x="25" y="519" type="line"/>
      <point x="250" y="2" type="line"/>
      <point x="250" y="-213" type="line"/>
    </contour>
  </outline>
</glyph>
<glyph name="Chedescender-cy" format="2">
  <advance width="671"/>
  <unicode hex="04B6"/>
  <anchor x="514" y="0" name="_bottomright"/>
  <outline>
    <component base="Che-cy"/>
    <contour>
      <point x="616" y="-135" type="line"/>
      <point x="616" y="20" type="line"/>
      <point x="514" y="20" type="line"/>
      <point x="514" y="0" type="line"/>
      <point x="596" y="0" type="line"/>
      <point x="596" y="-135" type="line"/>
    </contour>
  </outline>
</glyph>
<glyph name="chedescender-cy" format="2">
  <advance width="500"/>
  <unicode hex="04B7"/>
  <anchor x="381" y="0" name="_bottomright"/>
  <outline>
    <component base="che-cy"/>
    <contour>
      <point x="470" y="-117" type="line"/>
      <point x="470" y="19" type="line"/>
      <point x="381" y="19" type="line"/>
      <point x="381" y="0" type="line"/>
      <point x="450" y="0" type="line"/>
      <point x="450" y="-117" type="line"/>
    </contour>
  </outline>
</glyph>
<glyph name="Cheverticalstroke-cy" format="2">
  <advance width="633"/>
  <unicode hex="04B8"/>
  <anchor x="295" y="295" name="_center"/>
  <outline>
    <component base="Che-cy"/>
    <contour>
      <point x="305" y="459" type="line"/>
      <point x="285" y="459" type="line"/>
      <point x="285" y="141" type="line"/>
      <point x="305" y="141" type="line"/>
    </contour>
  </outline>
</glyph>
<glyph name="cheverticalstroke-cy" format="2">
  <advance width="490"/>
  <unicode hex="04B9"/>
  <anchor x="233" y="213" name="_center"/>
  <outline>
    <contour>
      <point x="406" y="0" type="line"/>
      <point x="406" y="519" type="line"/>
      <point x="385" y="519" type="line"/>
      <point x="385" y="261" type="line"/>
      <point x="353" y="241"/>
      <point x="290" y="225"/>
      <point x="231" y="225" type="curve" smooth="yes"/>
      <point x="129" y="225"/>
      <point x="85" y="274"/>
      <point x="85" y="390" type="curve" smooth="yes"/>
      <point x="85" y="519" type="line"/>
      <point x="65" y="519" type="line"/>
      <point x="65" y="388" type="line" smooth="yes"/>
      <point x="65" y="263"/>
      <point x="116" y="206"/>
      <point x="235" y="206" type="curve" smooth="yes"/>
      <point x="290" y="206"/>
      <point x="340" y="217"/>
      <point x="385" y="239" type="curve"/>
      <point x="385" y="0" type="line"/>
    </contour>
    <contour>
      <point x="242" y="353" type="line"/>
      <point x="222" y="353" type="line"/>
      <point x="222" y="105" type="line"/>
      <point x="242" y="105" type="line"/>
    </contour>
  </outline>
</glyph>
<glyph name="Obarred-cy" format="2">
  <advance width="757"/>
  <unicode hex="04E8"/>
  <outline>
    <component base="O"/>
    <contour>
      <point x="701" y="353" type="line"/>
      <point x="701" y="373" type="line"/>
      <point x="59" y="373" type="line"/>
      <point x="59" y="353" type="line"/>
    </contour>
  </outline>
</glyph>
<glyph name="obarred-cy" format="2">
  <advance width="586"/>
  <unicode hex="04E9"/>
  <outline>
    <component base="o"/>
    <contour>
      <point x="534" y="256" type="line"/>
      <point x="534" y="275" type="line"/>
      <point x="56" y="275" type="line"/>
      <point x="56" y="256" type="line"/>
    </contour>
  </outline>
</glyph>
<glyph name="Gedescender-cy" format="2">
  <advance width="498"/>
  <unicode hex="04F6"/>
  <anchor x="119" y="0" name="_bottomright"/>
  <outline>
    <component base="Ge-cy"/>
    <contour>
      <point x="221" y="-135" type="line"/>
      <point x="221" y="20" type="line"/>
      <point x="119" y="20" type="line"/>
      <point x="119" y="0" type="line"/>
      <point x="201" y="0" type="line"/>
      <point x="201" y="-135" type="line"/>
    </contour>
  </outline>
</glyph>
<glyph name="gedescender-cy" format="2">
  <advance width="392"/>
  <unicode hex="04F7"/>
  <anchor x="104" y="0" name="_bottomright"/>
  <outline>
    <component base="ge-cy"/>
    <contour>
      <point x="193" y="-117" type="line"/>
      <point x="193" y="19" type="line"/>
      <point x="104" y="19" type="line"/>
      <point x="104" y="0" type="line"/>
      <point x="173" y="0" type="line"/>
      <point x="173" y="-117" type="line"/>
    </contour>
  </outline>
</glyph>
<glyph name="Pedescender-cy" format="2">
  <advance width="742"/>
  <unicode hex="0524"/>
  <anchor x="585" y="0" name="_bottomright"/>
  <outline>
    <component base="Pe-cy"/>
    <contour>
      <point x="687" y="-135" type="line"/>
      <point x="687" y="20" type="line"/>
      <point x="585" y="20" type="line"/>
      <point x="585" y="0" type="line"/>
      <point x="667" y="0" type="line"/>
      <point x="667" y="-135" type="line"/>
    </contour>
  </outline>
</glyph>
<glyph name="pedescender-cy" format="2">
  <advance width="567"/>
  <unicode hex="0525"/>
  <anchor x="448" y="0" name="_bottomright"/>
  <outline>
    <component base="pe-cy"/>
    <contour>
      <point x="537" y="-117" type="line"/>
      <point x="537" y="19" type="line"/>
      <point x="448" y="19" type="line"/>
      <point x="448" y="0" type="line"/>
      <point x="517" y="0" type="line"/>
      <point x="517" y="-117" type="line"/>
    </contour>
  </outline>
</glyph>
<glyph name="colonsign" format="2">
  <advance width="704"/>
  <unicode hex="20A1"/>
  <outline>
    <component base="C"/>
    <contour>
      <point x="476" y="835" type="line"/>
      <point x="456" y="835" type="line"/>
      <point x="433" y="703" type="line"/>
      <point x="453" y="703" type="line"/>
    </contour>
    <contour>
      <point x="343" y="703" type="line"/>
      <point x="363" y="703" type="line"/>
      <point x="386" y="835" type="line"/>
      <point x="366" y="835" type="line"/>
    </contour>
    <contour>
      <point x="410" y="4" type="line"/>
      <point x="390" y="4" type="line"/>
      <point x="368" y="-120" type="line"/>
      <point x="388" y="-120" type="line"/>
    </contour>
    <contour>
      <point x="278" y="-120" type="line"/>
      <point x="298" y="-120" type="line"/>
      <point x="320" y="4" type="line"/>
      <point x="300" y="4" type="line"/>
    </contour>
  </outline>
</glyph>
<glyph name="won" format="2">
  <advance width="1074"/>
  <unicode hex="20A9"/>
  <outline>
    <component base="W" xOffset="18"/>
    <contour>
      <point x="47" y="439" type="line"/>
      <point x="1027" y="439" type="line"/>
      <point x="1027" y="459" type="line"/>
      <point x="47" y="459" type="line"/>
    </contour>
    <contour>
      <point x="47" y="349" type="line"/>
      <point x="1027" y="349" type="line"/>
      <point x="1027" y="369" type="line"/>
      <point x="47" y="369" type="line"/>
    </contour>
  </outline>
</glyph>
<glyph name="kip" format="2">
  <advance width="621"/>
  <unicode hex="20AD"/>
  <outline>
    <component base="K"/>
    <contour>
      <point x="571" y="151" type="line"/>
      <point x="571" y="171" type="line"/>
      <point x="28" y="171" type="line"/>
      <point x="28" y="151" type="line"/>
    </contour>
  </outline>
</glyph>
<glyph name="tugrik" format="2">
  <advance width="600"/>
  <unicode hex="20AE"/>
  <outline>
    <component base="T"/>
    <contour>
      <point x="541" y="460" type="line"/>
      <point x="541" y="481" type="line"/>
      <point x="59" y="299" type="line"/>
      <point x="59" y="278" type="line"/>
    </contour>
    <contour>
      <point x="541" y="360" type="line"/>
      <point x="541" y="381" type="line"/>
      <point x="59" y="199" type="line"/>
      <point x="59" y="178" type="line"/>
    </contour>
  </outline>
</glyph>
<glyph name="brevecomb-cy" format="2">
  <advance width="315"/>
  <anchor x="158" y="519" name="_top"/>
  <outline>
    <contour>
      <point x="158" y="621" type="curve" smooth="yes"/>
      <point x="235" y="621"/>
      <point x="265" y="650"/>
      <point x="265" y="682" type="curve"/>
      <point x="249" y="682" type="line"/>
      <point x="241" y="657"/>
      <point x="225" y="637"/>
      <point x="158" y="637" type="curve" smooth="yes"/>
      <point x="90" y="637"/>
      <point x="67" y="660"/>
      <point x="67" y="682" type="curve"/>
      <point x="50" y="682" type="line"/>
      <point x="50" y="650"/>
      <point x="80" y="621"/>
    </contour>
  </outline>
</glyph>
<glyph name="eight.tnum" format="2">
  <advance width="670"/>
  <outline>
    <contour>
      <point x="572" y="188" type="curve" smooth="yes"/>
      <point x="572" y="283"/>
      <point x="500" y="354"/>
      <point x="407" y="381" type="curve"/>
      <point x="481" y="407"/>
      <point x="546" y="461"/>
      <point x="546" y="541" type="curve" smooth="yes"/>
      <point x="546" y="650"/>
      <point x="439" y="710"/>
      <point x="335" y="710" type="curve" smooth="yes"/>
      <point x="231" y="710"/>
      <point x="123" y="650"/>
      <point x="123" y="541" type="curve" smooth="yes"/>
      <point x="123" y="461"/>
      <point x="187" y="407"/>
      <point x="261" y="381" type="curve"/>
      <point x="180" y="359"/>
      <point x="97" y="289"/>
      <point x="97" y="190" type="curve" smooth="yes"/>
      <point x="97" y="87"/>
      <point x="188" y="-7"/>
      <point x="331" y="-7" type="curve" smooth="yes"/>
      <point x="459" y="-7"/>
      <point x="572" y="69"/>
    </contour>
    <contour>
      <point x="552" y="191" type="curve" smooth="yes"/>
      <point x="552" y="80"/>
      <point x="439" y="10"/>
      <point x="336" y="10" type="curve" smooth="yes"/>
      <point x="236" y="10"/>
      <point x="117" y="75"/>
      <point x="117" y="189" type="curve" smooth="yes"/>
      <point x="117" y="299"/>
      <point x="229" y="371"/>
      <point x="333" y="371" type="curve" smooth="yes"/>
      <point x="433" y="371"/>
      <point x="552" y="305"/>
    </contour>
    <contour>
      <point x="143" y="539" type="curve" smooth="yes"/>
      <point x="143" y="634"/>
      <point x="236" y="690"/>
      <point x="333" y="690" type="curve" smooth="yes"/>
      <point x="430" y="690"/>
      <point x="526" y="636"/>
      <point x="526" y="541" type="curve" smooth="yes"/>
      <point x="526" y="446"/>
      <point x="422" y="391"/>
      <point x="334" y="391" type="curve" smooth="yes"/>
      <point x="247" y="391"/>
      <point x="143" y="444"/>
    </contour>
  </outline>
</glyph>
<glyph name="five.tnum" format="2">
  <advance width="670"/>
  <outline>
    <contour>
      <point x="330" y="-10" type="curve" smooth="yes"/>
      <point x="455" y="-10"/>
      <point x="565" y="82"/>
      <point x="565" y="221" type="curve" smooth="yes"/>
      <point x="565" y="353"/>
      <point x="461" y="445"/>
      <point x="335" y="445" type="curve" smooth="yes"/>
      <point x="265" y="445"/>
      <point x="197" y="417"/>
      <point x="149" y="365" type="curve"/>
      <point x="214" y="690" type="line"/>
      <point x="534" y="690" type="line"/>
      <point x="534" y="710" type="line"/>
      <point x="197" y="710" type="line"/>
      <point x="119" y="327" type="line"/>
      <point x="143" y="327" type="line"/>
      <point x="187" y="390"/>
      <point x="260" y="425"/>
      <point x="335" y="425" type="curve" smooth="yes"/>
      <point x="452" y="425"/>
      <point x="545" y="340"/>
      <point x="545" y="221" type="curve" smooth="yes"/>
      <point x="545" y="97"/>
      <point x="449" y="10"/>
      <point x="330" y="10" type="curve" smooth="yes"/>
      <point x="241" y="10"/>
      <point x="164" y="61"/>
      <point x="128" y="136" type="curve"/>
      <point x="106" y="136" type="line"/>
      <point x="145" y="49"/>
      <point x="230" y="-10"/>
    </contour>
  </outline>
</glyph>
<glyph name="four.tnum" format="2">
  <advance width="670"/>
  <outline>
    <contour>
      <point x="489" y="0" type="line"/>
      <point x="489" y="211" type="line"/>
      <point x="577" y="211" type="line"/>
      <point x="577" y="231" type="line"/>
      <point x="489" y="231" type="line"/>
      <point x="489" y="710" type="line"/>
      <point x="475" y="710" type="line"/>
      <point x="84" y="228" type="line"/>
      <point x="84" y="211" type="line"/>
      <point x="469" y="211" type="line"/>
      <point x="469" y="0" type="line"/>
    </contour>
    <contour>
      <point x="469" y="673" type="line"/>
      <point x="469" y="231" type="line"/>
      <point x="112" y="231" type="line"/>
    </contour>
  </outline>
</glyph>
<glyph name="ghestroke-cy.loclBSH" format="2">
  <advance width="392"/>
  <outline>
    <component base="ge-cy"/>
    <contour>
      <point x="328" y="249" type="line"/>
      <point x="328" y="268" type="line"/>
      <point x="88" y="268" type="line"/>
      <point x="88" y="249" type="line"/>
    </contour>
  </outline>
</glyph>
<glyph name="j.ss04" format="2">
  <advance width="188"/>
  <outline>
    <component base="dotaccentcomb" xOffset="34"/>
    <contour>
      <point x="84" y="-213" type="line"/>
      <point x="104" y="-213" type="line"/>
      <point x="104" y="517" type="line"/>
      <point x="84" y="517" type="line"/>
    </contour>
  </outline>
</glyph>
<glyph name="ka-cy.loclBGR" format="2">
  <advance width="471"/>
  <anchor x="265" y="0" name="bottom"/>
  <anchor x="411" y="0" name="bottomright"/>
  <anchor x="222" y="519" name="top"/>
  <outline>
    <contour>
      <point x="84" y="0" type="line"/>
      <point x="84" y="730" type="line"/>
      <point x="104" y="730" type="line"/>
      <point x="104" y="275" type="line"/>
      <point x="181" y="275" type="line"/>
      <point x="380" y="519" type="line"/>
      <point x="406" y="519" type="line"/>
      <point x="198" y="266" type="line"/>
      <point x="436" y="0" type="line"/>
      <point x="409" y="0" type="line"/>
      <point x="181" y="256" type="line"/>
      <point x="104" y="256" type="line"/>
      <point x="104" y="0" type="line"/>
    </contour>
  </outline>
</glyph>
<glyph name="nine.tnum" format="2">
  <advance width="670"/>
  <outline>
    <contour>
      <point x="80" y="473" type="curve" smooth="yes"/>
      <point x="80" y="607"/>
      <point x="189" y="715"/>
      <point x="326" y="715" type="curve" smooth="yes"/>
      <point x="467" y="715"/>
      <point x="576" y="610"/>
      <point x="576" y="439" type="curve" smooth="yes"/>
      <point x="576" y="128"/>
      <point x="472" y="-10"/>
      <point x="324" y="-10" type="curve" smooth="yes"/>
      <point x="227" y="-10"/>
      <point x="147" y="47"/>
      <point x="118" y="137" type="curve"/>
      <point x="137" y="144" type="line"/>
      <point x="162" y="64"/>
      <point x="237" y="10"/>
      <point x="323" y="10" type="curve" smooth="yes"/>
      <point x="461" y="10"/>
      <point x="554" y="151"/>
      <point x="554" y="397" type="curve"/>
      <point x="523" y="298"/>
      <point x="428" y="230"/>
      <point x="322" y="230" type="curve" smooth="yes"/>
      <point x="188" y="230"/>
      <point x="80" y="339"/>
    </contour>
    <contour>
      <point x="324" y="695" type="curve" smooth="yes"/>
      <point x="201" y="695"/>
      <point x="100" y="595"/>
      <point x="100" y="474" type="curve" smooth="yes"/>
      <point x="100" y="352"/>
      <point x="203" y="250"/>
      <point x="325" y="250" type="curve" smooth="yes"/>
      <point x="448" y="250"/>
      <point x="550" y="352"/>
      <point x="550" y="473" type="curve" smooth="yes"/>
      <point x="550" y="594"/>
      <point x="447" y="695"/>
    </contour>
  </outline>
</glyph>
<glyph name="one.tnum" format="2">
  <advance width="670"/>
  <outline>
    <contour>
      <point x="370" y="20" type="line"/>
      <point x="370" y="720" type="line"/>
      <point x="350" y="720" type="line"/>
      <point x="348" y="716"/>
      <point x="264" y="621"/>
      <point x="195" y="621" type="curve"/>
      <point x="195" y="601" type="line"/>
      <point x="249" y="601"/>
      <point x="328" y="656"/>
      <point x="350" y="687" type="curve"/>
      <point x="350" y="20" type="line"/>
      <point x="68" y="20" type="line"/>
      <point x="68" y="0" type="line"/>
      <point x="647" y="0" type="line"/>
      <point x="647" y="20" type="line"/>
    </contour>
  </outline>
</glyph>
<glyph name="seven.tnum" format="2">
  <advance width="670"/>
  <outline>
    <contour>
      <point x="191" y="0" type="line"/>
      <point x="214" y="0" type="line"/>
      <point x="578" y="710" type="line"/>
      <point x="118" y="710" type="line"/>
      <point x="118" y="690" type="line"/>
      <point x="545" y="690" type="line"/>
    </contour>
  </outline>
</glyph>
<glyph name="six.tnum" format="2">
  <advance width="670"/>
  <outline>
    <contour>
      <point x="589" y="232" type="curve" smooth="yes"/>
      <point x="589" y="98"/>
      <point x="480" y="-10"/>
      <point x="343" y="-10" type="curve" smooth="yes"/>
      <point x="202" y="-10"/>
      <point x="93" y="95"/>
      <point x="93" y="266" type="curve" smooth="yes"/>
      <point x="93" y="577"/>
      <point x="197" y="715"/>
      <point x="345" y="715" type="curve" smooth="yes"/>
      <point x="442" y="715"/>
      <point x="522" y="658"/>
      <point x="551" y="568" type="curve"/>
      <point x="532" y="561" type="line"/>
      <point x="507" y="641"/>
      <point x="432" y="695"/>
      <point x="346" y="695" type="curve" smooth="yes"/>
      <point x="208" y="695"/>
      <point x="115" y="554"/>
      <point x="115" y="308" type="curve"/>
      <point x="146" y="407"/>
      <point x="241" y="475"/>
      <point x="347" y="475" type="curve" smooth="yes"/>
      <point x="481" y="475"/>
      <point x="589" y="366"/>
    </contour>
    <contour>
      <point x="345" y="10" type="curve" smooth="yes"/>
      <point x="468" y="10"/>
      <point x="569" y="110"/>
      <point x="569" y="231" type="curve" smooth="yes"/>
      <point x="569" y="353"/>
      <point x="466" y="455"/>
      <point x="344" y="455" type="curve" smooth="yes"/>
      <point x="221" y="455"/>
      <point x="119" y="353"/>
      <point x="119" y="232" type="curve" smooth="yes"/>
      <point x="119" y="111"/>
      <point x="222" y="10"/>
    </contour>
  </outline>
</glyph>
<glyph name="three.tnum" format="2">
  <advance width="670"/>
  <outline>
    <contour>
      <point x="338" y="-9" type="curve" smooth="yes"/>
      <point x="471" y="-9"/>
      <point x="572" y="72"/>
      <point x="572" y="178" type="curve" smooth="yes"/>
      <point x="572" y="268"/>
      <point x="507" y="340"/>
      <point x="408" y="359" type="curve"/>
      <point x="504" y="384"/>
      <point x="552" y="438"/>
      <point x="552" y="521" type="curve" smooth="yes"/>
      <point x="552" y="634"/>
      <point x="455" y="719"/>
      <point x="324" y="719" type="curve" smooth="yes"/>
      <point x="225" y="719"/>
      <point x="140" y="669"/>
      <point x="109" y="592" type="curve"/>
      <point x="127" y="584" type="line"/>
      <point x="155" y="654"/>
      <point x="232" y="699"/>
      <point x="324" y="699" type="curve" smooth="yes"/>
      <point x="444" y="699"/>
      <point x="532" y="624"/>
      <point x="532" y="521" type="curve" smooth="yes"/>
      <point x="532" y="423"/>
      <point x="453" y="370"/>
      <point x="307" y="370" type="curve" smooth="yes"/>
      <point x="272" y="370" type="line"/>
      <point x="272" y="350" type="line"/>
      <point x="307" y="350" type="line" smooth="yes"/>
      <point x="454" y="350"/>
      <point x="552" y="282"/>
      <point x="552" y="179" type="curve" smooth="yes"/>
      <point x="552" y="83"/>
      <point x="461" y="11"/>
      <point x="339" y="11" type="curve" smooth="yes"/>
      <point x="218" y="11"/>
      <point x="121" y="83"/>
      <point x="117" y="176" type="curve"/>
      <point x="97" y="176" type="line"/>
      <point x="100" y="70"/>
      <point x="203" y="-9"/>
    </contour>
  </outline>
</glyph>
<glyph name="zero.tnum" format="2">
  <advance width="670"/>
  <outline>
    <contour>
      <point x="335" y="-10" type="curve"/>
      <point x="509" y="-7"/>
      <point x="617" y="177"/>
      <point x="617" y="350" type="curve" smooth="yes"/>
      <point x="617" y="505"/>
      <point x="521" y="710"/>
      <point x="335" y="710" type="curve" smooth="yes"/>
      <point x="161" y="710"/>
      <point x="53" y="521"/>
      <point x="53" y="350" type="curve" smooth="yes"/>
      <point x="53" y="190"/>
      <point x="149" y="-4"/>
    </contour>
    <contour>
      <point x="73" y="350" type="curve"/>
      <point x="73" y="493"/>
      <point x="161" y="690"/>
      <point x="335" y="690" type="curve" smooth="yes"/>
      <point x="497" y="690"/>
      <point x="597" y="509"/>
      <point x="597" y="350" type="curve" smooth="yes"/>
      <point x="597" y="206"/>
      <point x="509" y="10"/>
      <point x="335" y="10" type="curve" smooth="yes"/>
      <point x="168" y="10"/>
      <point x="79" y="191"/>
    </contour>
  </outline>
</glyph>
